<?xml version="1.0" standalone="no"?>
<!DOCTYPE svg PUBLIC "-//W3C//DTD SVG 20010904//EN"
 "http://www.w3.org/TR/2001/REC-SVG-20010904/DTD/svg10.dtd">
<svg version="1.0" xmlns="http://www.w3.org/2000/svg"
 width="800.000000pt" height="800.000000pt" viewBox="0 0 800.000000 800.000000"
 preserveAspectRatio="xMidYMid meet">
<metadata>
Created by potrace 1.14, written by Peter Selinger 2001-2017
</metadata>
<g transform="translate(0.000000,800.000000) scale(0.100000,-0.100000)"
fill="#000000" stroke="none">
<path d="M4129 7093 c-19 -23 -18 -85 1 -109 14 -17 14 -18 -2 -6 -15 12 -17
11 -15 -10 0 -13 6 -26 12 -30 5 -4 0 -8 -12 -8 -13 0 -23 -5 -23 -11 0 -5 5
-7 10 -4 20 12 6 -57 -15 -72 -14 -11 -15 -14 -3 -10 9 3 19 -1 22 -9 3 -9 1
-12 -4 -9 -6 3 -10 1 -10 -5 0 -6 -5 -8 -12 -4 -7 4 -8 3 -4 -5 4 -6 11 -9 16
-6 5 3 12 0 16 -6 4 -7 3 -9 -4 -5 -15 9 -23 -7 -12 -24 6 -10 3 -21 -7 -32
-13 -15 -13 -18 -2 -18 11 0 11 -2 -1 -10 -13 -9 -13 -10 0 -10 13 0 13 -1 0
-10 -13 -8 -13 -10 0 -10 11 0 11 -3 2 -12 -14 -14 -16 -32 -4 -24 5 3 9 -1 9
-9 0 -8 -4 -12 -8 -10 -4 3 -10 -2 -13 -11 -4 -10 -2 -13 7 -8 6 4 9 4 5 -1
-4 -4 -2 -15 5 -23 8 -11 9 -14 0 -9 -7 4 -16 0 -22 -10 -7 -13 -5 -23 7 -37
16 -18 16 -18 -8 -6 -19 10 -22 10 -13 0 6 -7 9 -19 6 -28 -4 -8 -2 -13 3 -9
5 3 10 -3 10 -13 0 -18 -1 -18 -20 -2 -18 16 -18 16 -5 -6 12 -20 12 -24 -1
-32 -8 -5 -10 -10 -5 -10 6 0 16 5 22 11 8 8 13 7 18 -3 5 -7 5 -10 1 -6 -11
9 -35 -15 -28 -27 3 -5 -2 -4 -11 4 -15 12 -17 12 -11 -4 6 -14 4 -16 -6 -10
-10 6 -12 4 -7 -8 3 -9 1 -19 -5 -23 -6 -4 -8 -3 -5 3 3 5 0 10 -8 10 -10 0
-11 -5 -4 -18 6 -12 5 -20 -1 -24 -6 -4 -8 -11 -5 -16 4 -5 1 -9 -5 -9 -6 0
-8 -5 -4 -12 4 -7 3 -8 -5 -4 -9 6 -8 14 5 34 16 26 16 26 -1 10 -16 -15 -21
-31 -24 -76 -1 -7 -5 -10 -11 -7 -5 3 -10 0 -10 -8 0 -8 -9 -22 -20 -32 -11
-10 -17 -22 -14 -26 3 -5 -1 -7 -8 -4 -7 3 -24 -5 -38 -16 -20 -16 -21 -20 -6
-15 20 7 20 7 0 -15 -16 -19 -17 -22 -2 -16 10 3 20 1 24 -5 4 -7 3 -8 -4 -4
-7 4 -12 0 -12 -10 0 -10 3 -14 7 -11 3 4 13 1 21 -6 11 -8 14 -8 9 0 -4 6 -3
15 3 18 6 4 10 3 9 -2 -3 -19 2 -25 14 -15 10 8 13 6 14 -11 1 -12 -1 -17 -5
-12 -10 14 -32 17 -32 4 0 -6 -7 -9 -14 -6 -11 4 -13 1 -9 -11 6 -15 5 -16
-12 -2 -17 14 -18 13 -9 -5 6 -11 9 -30 8 -42 0 -13 3 -23 8 -23 5 0 6 -5 3
-10 -4 -6 -12 -8 -18 -4 -7 3 -5 0 3 -8 16 -14 25 -68 11 -68 -14 0 -21 -29
-9 -36 7 -4 8 -3 4 4 -4 7 -2 12 4 12 7 0 10 -6 7 -12 -2 -7 -13 -12 -23 -11
-17 1 -18 0 -2 -11 15 -11 15 -13 0 -22 -13 -9 -13 -12 -2 -19 9 -5 11 -4 6 3
-5 8 -1 10 10 5 11 -4 13 -8 6 -11 -7 -2 -10 -8 -7 -12 3 -5 0 -12 -6 -16 -8
-5 -9 -3 -4 6 6 9 4 11 -4 5 -9 -5 -10 -10 -2 -18 13 -13 15 -31 3 -23 -5 3
-9 -1 -9 -9 0 -8 4 -12 9 -9 13 8 10 -10 -4 -25 -10 -11 -10 -13 0 -7 6 4 12
2 12 -3 0 -6 -5 -11 -11 -11 -8 0 -8 -5 1 -15 10 -12 10 -15 -1 -15 -11 0 -11
-2 1 -10 12 -8 12 -10 -5 -11 -15 0 -16 -2 -5 -7 8 -4 16 -15 16 -24 1 -10 -2
-15 -7 -13 -4 3 -7 -4 -6 -15 1 -11 5 -20 10 -20 4 0 5 -5 2 -10 -4 -6 -10 -8
-14 -6 -4 3 -6 -5 -5 -17 1 -12 3 -26 3 -30 1 -5 7 -5 14 -2 6 4 3 -1 -7 -9
-18 -15 -15 -21 8 -17 5 1 4 -5 -3 -13 -7 -8 -9 -21 -5 -27 4 -8 3 -9 -4 -5
-18 11 -14 -10 6 -30 14 -15 14 -17 1 -12 -9 4 -20 -1 -26 -11 -9 -14 -8 -18
3 -18 7 0 10 5 7 10 -3 6 -1 7 6 3 6 -4 9 -11 7 -15 -10 -16 -14 -61 -6 -66 5
-3 7 3 5 15 -2 11 0 22 5 25 5 3 7 -3 5 -15 -2 -11 0 -22 5 -25 4 -3 7 -11 6
-18 -3 -21 -17 -38 -27 -31 -6 4 -6 11 2 20 8 10 8 14 0 14 -6 0 -11 -5 -11
-11 0 -5 -4 -8 -9 -5 -4 3 -6 -6 -3 -21 4 -20 2 -25 -10 -21 -9 4 -15 0 -15
-8 0 -9 6 -13 16 -9 12 5 13 3 5 -5 -6 -6 -20 -13 -30 -14 -10 -2 -20 -9 -22
-17 -3 -11 -1 -11 7 1 6 9 11 10 11 3 0 -6 -12 -21 -27 -33 -16 -12 -22 -18
-14 -14 10 5 12 3 6 -6 -6 -10 -11 -9 -23 6 -14 18 -14 18 -8 1 3 -10 6 -26 6
-35 0 -13 2 -14 8 -4 7 9 13 8 27 -8 21 -23 42 -16 23 8 -12 15 -11 16 5 3 9
-7 17 -10 17 -6 0 4 6 2 14 -4 8 -7 17 -8 20 -3 3 5 18 8 33 6 15 -1 31 2 34
8 5 7 16 6 37 -5 28 -13 30 -13 25 2 -4 14 -3 14 6 1 16 -22 13 -30 -8 -30
-24 0 -45 -25 -35 -42 6 -10 4 -10 -9 0 -14 12 -17 10 -24 -15 -4 -15 -8 -32
-8 -38 0 -5 -8 -9 -18 -7 -12 2 -15 -2 -10 -14 5 -13 3 -15 -7 -9 -10 6 -12 4
-7 -7 7 -20 -21 -18 -34 3 -7 12 -9 12 -9 -1 0 -10 -3 -11 -8 -4 -4 6 -14 14
-22 17 -9 4 -7 6 7 4 15 -1 29 9 45 32 13 19 29 37 37 39 8 3 11 0 8 -5 -3 -5
-1 -15 5 -23 8 -12 9 -12 4 2 -3 10 -1 20 4 23 5 3 6 13 3 22 -4 11 -3 14 6 9
10 -6 10 -3 0 12 -11 17 -16 19 -28 9 -8 -7 -16 -11 -18 -9 -11 8 -33 0 -28
-10 4 -7 0 -5 -8 4 -13 16 -15 16 -31 0 -14 -14 -17 -14 -14 -2 2 8 -3 14 -10
12 -8 -1 -11 2 -8 7 3 4 -5 9 -19 9 -14 0 -22 -4 -20 -9 3 -4 -8 -6 -25 -4
-16 2 -29 1 -29 -3 3 -19 -2 -25 -11 -12 -8 13 -10 12 -10 -3 0 -10 -4 -16 -9
-12 -5 3 -12 1 -15 -4 -4 -5 -1 -13 5 -17 8 -5 9 -3 4 6 -5 9 -4 11 4 6 17
-11 4 -25 -18 -21 -15 3 -19 -1 -16 -17 4 -17 2 -18 -12 -6 -15 11 -16 10 -11
-10 5 -19 4 -21 -8 -11 -11 9 -14 8 -14 -5 0 -9 -4 -16 -10 -16 -5 0 -10 -7
-10 -15 0 -8 -13 -21 -30 -30 -16 -9 -30 -18 -30 -21 0 -3 4 -2 10 1 6 3 7 -1
4 -10 -5 -12 -9 -13 -20 -4 -12 10 -13 9 -8 -5 4 -11 2 -16 -7 -14 -9 2 -13
-4 -11 -14 2 -13 -2 -16 -15 -11 -14 5 -16 4 -7 -8 8 -11 2 -23 -32 -55 -24
-23 -46 -39 -51 -35 -4 3 -1 -3 7 -13 13 -17 13 -18 1 -11 -11 6 -13 4 -8 -8
4 -12 1 -15 -14 -12 -16 3 -17 1 -10 -14 7 -13 6 -18 -4 -18 -8 0 -11 5 -8 10
3 6 1 7 -6 3 -9 -6 -9 -11 -1 -21 8 -10 8 -15 -1 -21 -8 -4 -9 -3 -5 4 4 7 2
12 -3 12 -11 0 -15 -13 -12 -39 2 -7 -3 -10 -9 -6 -6 4 -11 1 -9 -6 3 -26 -1
-39 -12 -39 -8 0 -7 6 2 18 13 15 12 16 -4 3 -10 -8 -16 -20 -13 -28 3 -7 0
-13 -6 -13 -6 0 -5 -6 3 -17 10 -11 10 -14 2 -9 -7 4 -13 3 -13 -3 0 -5 -10
-13 -21 -16 -13 -4 -17 -10 -11 -14 23 -14 -1 -66 -26 -56 -12 4 -11 1 4 -16
19 -22 19 -22 -3 -11 -23 13 -26 1 -9 -27 6 -9 5 -12 -1 -8 -6 4 -13 0 -16 -8
-4 -10 -1 -12 11 -9 15 5 15 4 -1 -6 -9 -6 -14 -16 -11 -22 5 -7 1 -9 -9 -5
-11 4 -14 2 -10 -9 3 -7 -1 -14 -8 -14 -7 0 -9 -3 -6 -6 4 -4 13 -2 20 4 10 9
14 8 14 -3 0 -8 -4 -12 -9 -9 -4 3 -8 0 -8 -6 0 -6 -5 -8 -12 -4 -9 5 -9 2 1
-9 12 -15 11 -17 -5 -17 -16 0 -17 -2 -4 -10 12 -8 12 -10 1 -10 -11 0 -11 -3
0 -17 12 -14 12 -16 0 -8 -11 6 -13 4 -8 -9 5 -11 3 -15 -4 -10 -7 4 -10 1 -7
-7 3 -8 -1 -20 -8 -27 -17 -17 -7 -42 14 -35 15 4 15 3 2 -6 -8 -6 -12 -11 -8
-11 4 0 3 -12 -3 -26 -8 -24 -8 -25 6 -14 11 9 15 9 15 1 0 -7 5 -9 10 -6 6 3
10 -2 10 -12 0 -15 2 -16 10 -3 7 11 10 11 10 2 0 -7 5 -10 10 -7 6 4 10 3 9
-2 -1 -4 5 -23 13 -42 10 -22 17 -29 21 -20 4 10 6 9 6 -4 1 -14 5 -16 20 -8
22 12 51 -14 44 -39 -4 -13 -3 -13 6 0 5 8 7 18 5 22 -3 4 0 8 6 8 6 0 8 5 4
13 -5 7 0 6 11 -3 15 -12 17 -12 10 -1 -6 11 -3 13 13 9 12 -3 21 -3 20 1 -2
16 3 31 10 30 19 -3 22 3 12 21 -8 16 -8 20 2 18 7 -2 12 3 10 10 -1 9 2 11
10 6 19 -12 47 -12 45 0 -1 6 3 10 10 9 7 -2 10 4 7 15 -5 16 -5 16 8 0 13
-15 15 -15 28 5 11 19 11 20 -1 10 -11 -9 -17 -7 -26 13 -10 22 -10 24 2 14 8
-7 19 -9 24 -6 11 7 34 -28 24 -38 -3 -3 -1 -6 5 -6 7 0 12 5 12 12 0 6 3 8 6
5 4 -4 1 -13 -5 -21 -11 -13 -9 -15 8 -11 16 3 26 -5 41 -35 21 -42 44 -59 73
-55 9 2 17 -1 17 -6 0 -5 7 -9 15 -9 8 0 15 6 15 13 0 8 3 7 9 -3 6 -8 8 -17
5 -21 -2 -4 0 -11 6 -14 6 -4 10 -3 9 2 -4 15 13 43 22 37 5 -3 7 -11 3 -17
-3 -7 0 -5 8 3 7 8 23 16 35 16 17 1 21 -4 20 -24 -2 -21 -8 -26 -30 -27 -15
-1 -27 2 -27 7 0 4 -5 8 -11 8 -5 0 -7 -6 -3 -12 4 -7 4 -10 -1 -6 -4 4 -15 2
-23 -5 -10 -8 -13 -8 -9 -1 4 7 0 15 -9 18 -23 9 -26 8 -18 -6 4 -7 4 -10 -1
-6 -4 4 -15 2 -24 -5 -14 -11 -14 -10 -2 6 15 19 9 22 -19 7 -13 -7 -21 -7
-25 0 -3 5 -11 10 -17 10 -6 0 -5 -7 3 -17 13 -17 12 -17 -11 -3 -33 21 -231
20 -255 0 -13 -11 -15 -11 -13 0 2 7 -3 15 -10 17 -6 3 -10 -1 -9 -9 2 -7 2
-9 -1 -5 -2 4 -10 3 -18 -4 -11 -9 -15 -8 -20 5 -3 9 -10 16 -16 16 -5 0 -7
-4 -4 -8 2 -4 -11 -8 -30 -8 -19 0 -34 5 -34 11 0 5 -5 3 -10 -5 -9 -13 -11
-13 -20 0 -6 10 -10 11 -10 3 0 -7 -5 -13 -11 -13 -5 0 -7 6 -3 13 4 6 4 9 -1
5 -4 -4 -15 -2 -24 5 -14 11 -14 10 -2 -5 8 -11 9 -18 3 -18 -6 0 -14 5 -17
11 -5 7 -13 5 -24 -5 -12 -11 -21 -12 -27 -6 -7 7 -11 7 -11 -2 0 -7 -4 -22
-9 -32 -6 -15 -4 -18 7 -12 8 4 3 -1 -10 -12 -18 -14 -21 -21 -11 -27 8 -5 11
-4 7 2 -3 5 0 10 8 10 10 0 12 -4 5 -12 -5 -7 -7 -15 -3 -19 4 -4 -1 -4 -12
-1 -16 5 -17 5 -6 -3 11 -8 12 -16 5 -34 -11 -25 6 -74 21 -60 5 4 5 1 1 -5
-4 -7 -15 -13 -24 -13 -13 0 -13 -2 4 -15 19 -14 19 -14 -1 -15 -15 -1 -16 -3
-5 -7 22 -9 38 -35 33 -53 -4 -11 -1 -11 10 3 17 20 28 23 21 4 -3 -8 3 -13
15 -13 15 0 17 3 9 13 -8 10 -7 12 6 7 9 -3 16 -11 16 -18 0 -6 5 -4 10 4 7
11 10 12 10 2 0 -10 4 -10 16 2 20 20 25 20 17 -1 -6 -15 -5 -15 17 0 21 15
25 15 54 0 24 -12 28 -13 19 -2 -9 11 -7 14 12 14 13 0 21 -3 19 -7 -2 -4 0
-9 5 -12 5 -3 12 1 15 10 6 15 9 15 28 -2 12 -11 18 -14 15 -8 -8 13 11 23 31
17 6 -3 9 -10 5 -16 -3 -7 2 -4 13 5 28 25 30 25 55 3 12 -11 19 -15 16 -9 -8
13 11 23 31 17 6 -3 9 -10 5 -16 -3 -7 2 -4 13 5 28 25 30 25 55 3 12 -11 19
-15 16 -9 -9 15 20 27 29 12 5 -7 2 -8 -6 -3 -9 6 -11 4 -5 -4 5 -9 10 -10 18
-2 14 14 30 14 21 0 -3 -6 5 -4 19 6 20 13 27 14 34 3 4 -7 17 -14 28 -15 20
-1 20 -1 1 13 -11 8 -15 14 -9 14 7 0 19 -7 27 -16 10 -10 16 -11 16 -3 0 8 5
8 17 -2 11 -10 14 -10 9 -1 -9 16 6 16 23 -1 11 -9 13 -9 7 1 -11 18 5 14 20
-5 12 -16 13 -16 8 7 -2 14 -1 18 2 10 4 -8 12 -21 18 -29 9 -12 8 -13 -3 -6
-11 6 -13 2 -9 -19 4 -21 3 -24 -9 -15 -11 10 -12 8 -3 -15 7 -20 7 -25 -2
-20 -7 5 -9 2 -5 -9 4 -11 2 -14 -9 -10 -16 6 -16 -17 1 -29 6 -4 2 -8 -7 -8
-10 0 -18 -5 -18 -11 0 -5 5 -7 11 -3 8 4 8 0 0 -15 -7 -12 -9 -27 -5 -34 5
-7 2 -7 -9 2 -15 12 -17 12 -11 -4 4 -10 1 -21 -7 -26 -10 -6 -10 -9 -1 -9 6
0 12 -5 12 -11 0 -5 -4 -7 -10 -4 -10 6 -14 -7 -11 -32 1 -6 -4 -15 -10 -19
-8 -5 -9 -3 -4 6 6 9 4 11 -4 6 -9 -6 -8 -13 6 -29 10 -11 12 -17 6 -13 -7 4
-13 2 -13 -4 0 -6 -5 -8 -12 -4 -7 5 -8 3 -2 -7 12 -20 14 -40 3 -33 -5 3 -7
10 -4 15 4 5 -2 6 -11 2 -12 -4 -14 -8 -6 -11 10 -3 10 -7 0 -20 -11 -14 -10
-15 7 -9 20 7 20 7 1 -8 -11 -8 -16 -15 -12 -15 4 0 0 -7 -9 -16 -13 -13 -13
-19 -3 -32 11 -13 11 -14 -1 -7 -11 6 -13 4 -8 -8 3 -10 2 -17 -2 -17 -5 0
-12 -7 -15 -16 -6 -15 -4 -15 11 -3 17 13 17 13 0 -7 -9 -11 -14 -24 -10 -27
3 -4 1 -7 -5 -7 -6 0 -9 -7 -6 -15 4 -8 11 -12 18 -8 6 3 7 2 3 -3 -5 -5 -12
-9 -16 -9 -4 0 -15 -8 -25 -17 -10 -11 -13 -18 -5 -18 8 0 8 -5 -2 -17 -12
-15 -12 -16 1 -8 12 6 13 5 3 -6 -7 -7 -13 -23 -13 -36 0 -16 -8 -27 -25 -33
-14 -5 -25 -12 -25 -14 0 -3 7 -3 15 0 14 6 14 1 3 -46 -1 -8 -10 -20 -18 -27
-13 -11 -13 -12 0 -13 13 0 13 -2 0 -9 -8 -6 -18 -7 -24 -4 -5 3 -6 1 -2 -6 4
-6 11 -9 15 -7 4 3 8 -1 8 -8 0 -8 -6 -12 -14 -9 -16 6 -17 -9 0 -26 10 -11 9
-13 -5 -8 -15 5 -16 2 -8 -19 7 -19 7 -23 -2 -18 -8 5 -9 2 -4 -11 5 -15 4
-16 -8 -6 -11 9 -16 9 -22 0 -4 -8 -3 -9 4 -5 7 4 12 4 13 -1 0 -4 2 -16 4
-26 2 -9 -1 -15 -5 -12 -5 3 -12 0 -16 -6 -3 -6 0 -15 7 -20 11 -7 11 -9 1 -9
-8 0 -10 -5 -6 -13 6 -9 5 -9 -7 0 -12 10 -15 8 -15 -7 0 -10 3 -17 6 -15 4 2
7 -2 7 -9 0 -8 -6 -12 -13 -9 -6 2 -15 -1 -20 -8 -4 -8 -3 -10 4 -5 7 4 12 1
12 -8 0 -9 -4 -16 -10 -16 -5 0 -10 -14 -10 -31 0 -21 -4 -28 -12 -23 -10 6
-10 4 0 -8 10 -13 10 -18 1 -24 -8 -5 -9 -3 -4 6 6 9 4 11 -4 6 -7 -5 -10 -14
-7 -21 3 -8 -3 -16 -12 -18 -14 -4 -14 -5 2 -6 20 -1 20 -1 0 -17 -10 -8 -12
-12 -4 -8 12 5 13 4 3 -6 -10 -11 -17 -10 -37 4 -14 9 -25 20 -25 24 1 4 1 16
0 27 -1 17 -3 18 -11 5 -5 -8 -10 -10 -10 -5 0 6 6 17 13 24 7 9 7 11 1 8 -7
-4 -15 0 -18 9 -3 8 -2 12 3 9 5 -3 13 -1 16 5 4 6 3 10 -2 9 -27 -5 -33 3
-31 37 1 24 -3 39 -14 45 -9 5 -14 19 -13 34 2 14 -1 25 -7 25 -6 0 -4 7 3 16
12 15 11 16 -11 9 -22 -7 -23 -6 -11 9 11 13 11 16 0 16 -11 0 -11 2 1 10 10
6 11 10 3 10 -7 0 -13 5 -13 11 0 5 6 7 13 4 6 -4 2 2 -10 13 -13 11 -24 34
-25 51 -1 19 -7 30 -14 27 -8 -3 -10 3 -6 16 4 16 2 19 -8 13 -8 -5 -11 -4 -6
3 3 6 2 13 -3 16 -5 3 -7 15 -4 26 3 11 1 20 -5 20 -5 0 -12 15 -16 33 -5 26
-9 29 -17 17 -9 -13 -10 -13 -6 0 2 8 10 14 16 13 6 -2 11 2 11 7 0 6 -6 10
-14 10 -10 0 -12 7 -8 22 3 14 2 19 -6 14 -16 -10 -15 7 1 23 10 11 10 13 0 7
-7 -4 -13 -2 -13 4 0 6 -6 8 -12 4 -7 -4 -2 5 12 20 14 15 21 26 15 24 -5 -1
-21 5 -35 15 -13 9 -19 17 -12 17 7 0 11 4 7 10 -3 5 -11 8 -18 6 -7 -1 -9 -1
-4 1 4 3 7 11 7 19 0 9 -5 12 -11 8 -7 -4 -7 1 1 16 10 18 9 21 -1 15 -9 -6
-11 -2 -6 14 4 18 3 20 -8 11 -10 -8 -15 -8 -21 1 -4 8 -3 9 4 5 7 -4 12 -1
13 6 0 7 2 21 4 31 2 9 -1 15 -6 11 -5 -3 -7 -9 -4 -14 3 -5 2 -11 -3 -14 -5
-3 -8 9 -8 27 1 20 -4 31 -11 30 -9 -2 -10 4 -2 24 8 23 8 24 -6 13 -14 -12
-14 -10 -5 15 10 26 9 27 -7 14 -14 -11 -15 -11 -9 0 5 8 3 17 -5 23 -10 7 -7
8 11 4 23 -5 23 -4 -2 6 -16 7 -28 16 -28 21 0 4 6 5 13 1 6 -4 3 3 -8 16 -17
20 -17 22 -3 17 12 -4 15 -2 11 9 -3 8 -12 13 -20 10 -8 -3 -11 -2 -8 3 3 5 1
12 -5 16 -7 4 -7 12 0 24 7 14 4 24 -10 39 -22 24 -28 58 -7 46 8 -5 8 -2 -2
9 -7 9 -21 17 -29 17 -13 0 -12 3 4 14 10 8 16 18 11 22 -4 4 -7 2 -7 -4 0 -7
-5 -12 -11 -12 -5 0 -7 5 -4 10 3 6 0 10 -7 10 -9 0 -9 3 2 10 12 8 12 10 1
10 -10 0 -11 3 -2 13 15 19 1 30 -17 14 -13 -10 -14 -9 -8 10 4 13 1 26 -9 36
-13 14 -13 16 3 20 12 3 11 5 -6 6 -19 1 -21 4 -12 20 7 14 7 22 -2 27 -7 5
-8 3 -3 -6 5 -9 4 -11 -4 -6 -9 6 -9 11 1 24 11 13 11 14 -1 7 -11 -6 -13 -3
-8 14 5 19 3 20 -11 9 -10 -8 -13 -9 -9 -1 4 6 2 15 -3 18 -8 5 -5 14 7 28 16
18 16 20 1 14 -12 -4 -15 -2 -12 8 3 8 -1 21 -10 30 -8 9 -13 22 -10 30 3 8 2
20 -2 27 -11 17 -11 49 -1 72 7 14 6 16 -4 11 -9 -6 -10 -3 -5 11 14 35 15 54
3 54 -8 0 -7 3 2 9 7 5 11 13 7 19 -3 5 1 13 10 16 9 3 14 12 12 18 -3 7 5 21
16 31 12 10 16 16 9 13 -6 -4 -15 -1 -19 5 -4 7 -3 9 4 5 6 -3 14 0 19 7 14
22 54 46 70 40 7 -3 13 -2 12 3 -3 20 2 23 27 14 21 -8 25 -8 21 4 -4 10 3 13
28 10 27 -2 35 1 40 17 4 10 13 19 21 19 8 0 12 5 9 10 -4 6 -11 7 -17 4 -6
-4 -8 -2 -5 4 9 14 -1 39 -19 46 -8 3 -13 2 -10 -3 6 -9 -35 -24 -43 -16 -2 3
1 5 7 5 7 0 12 5 12 11 0 7 -11 4 -26 -6 -15 -9 -24 -13 -20 -7 11 18 -21 21
-45 4 -21 -14 -22 -14 -16 1 9 23 -9 22 -18 0 -7 -17 -8 -16 -15 2 -8 18 -9
18 -9 2 -1 -10 -6 -15 -11 -12 -6 4 -7 12 -3 18 3 7 -3 4 -14 -6 -14 -12 -23
-15 -28 -8 -9 15 -28 14 -19 -1 6 -10 4 -10 -7 0 -7 6 -17 12 -22 12 -4 0 -5
-6 -1 -12 6 -10 4 -10 -7 0 -15 14 -33 17 -25 4 3 -5 -1 -9 -9 -9 -8 0 -12 4
-9 9 8 12 -20 10 -33 -3 -8 -8 -13 -8 -17 0 -10 15 -29 14 -20 -1 6 -10 4 -10
-7 0 -7 6 -20 12 -29 12 -13 0 -13 -1 0 -10 12 -8 11 -10 -5 -7 -11 1 -26 6
-34 11 -8 5 -16 3 -22 -5 -7 -11 -9 -11 -9 -1 0 8 -5 10 -12 5 -23 -14 -38
-12 -38 5 0 14 -2 15 -9 3 -5 -8 -19 -15 -30 -16 -11 -1 -18 2 -15 7 3 4 -2 8
-10 8 -9 0 -16 -5 -16 -12 0 -6 -7 -3 -15 8 -14 19 -14 19 -15 -1 -1 -19 -1
-19 -11 -2 -10 17 -12 17 -36 2 -14 -10 -22 -12 -19 -6 8 12 7 12 -44 14 -19
1 -38 6 -42 12 -5 6 -8 6 -8 -1 0 -7 -18 -11 -44 -10 -30 1 -42 -2 -36 -9 6
-7 2 -11 -11 -11 -12 0 -18 5 -15 13 3 7 1 13 -4 13 -6 0 -10 -5 -10 -11 0 -8
-4 -8 -13 -1 -8 7 -18 7 -27 2 -8 -5 -21 -5 -31 1 -15 8 -17 5 -14 -13 4 -21
3 -22 -9 -5 -12 15 -14 16 -20 2 -3 -9 1 -18 9 -21 8 -4 12 -10 9 -16 -3 -5
-12 -4 -22 4 -13 11 -14 11 -8 -1 5 -8 3 -17 -5 -23 -11 -8 -10 -9 3 -4 16 5
32 -8 33 -26 0 -3 3 -9 7 -13 9 -9 5 16 -5 33 -5 6 -5 12 -2 12 9 0 36 -28 35
-35 -1 -4 2 -10 6 -13 4 -4 4 -1 0 6 -5 8 0 12 15 12 16 0 20 -5 17 -18 -3
-11 0 -19 7 -19 7 0 11 6 8 13 -2 6 1 15 8 20 7 4 10 3 7 -2 -3 -5 0 -15 8
-22 8 -7 14 -9 14 -4 0 5 7 9 15 9 9 0 14 -6 11 -13 -3 -7 4 -16 15 -19 10 -4
19 -11 19 -16 0 -5 6 -9 14 -9 20 0 29 -17 15 -26 -8 -5 -9 -3 -4 6 5 9 4 11
-4 6 -6 -4 -9 -12 -5 -17 3 -5 10 -7 15 -4 5 4 9 1 9 -6 0 -6 8 -18 18 -26 9
-8 11 -12 5 -8 -7 3 -13 3 -13 -2 1 -12 26 -43 35 -43 4 0 2 7 -5 15 -7 8 -8
15 -4 15 5 0 15 -9 22 -21 8 -12 9 -18 4 -15 -6 3 -13 -1 -16 -10 -3 -8 -2
-13 3 -10 5 3 12 -1 15 -10 4 -10 2 -13 -7 -9 -6 4 -4 0 6 -8 16 -14 16 -16 2
-31 -19 -19 -12 -21 16 -5 19 9 19 9 10 -10 -9 -16 -7 -24 10 -39 15 -15 17
-22 8 -27 -8 -6 -10 -4 -4 5 5 9 4 11 -4 6 -8 -6 -9 -12 -2 -20 6 -7 8 -16 5
-19 -4 -4 2 -5 13 -3 17 4 20 0 17 -25 -3 -22 0 -28 9 -23 7 5 5 0 -3 -11 -14
-17 -13 -18 3 -12 10 4 16 3 12 -2 -3 -5 1 -12 7 -15 7 -3 2 -3 -12 -1 -25 6
-25 5 3 -10 15 -9 27 -18 27 -21 0 -3 -4 -2 -10 1 -6 3 -7 -1 -4 -9 3 -9 11
-13 16 -10 6 4 5 -4 -2 -16 -7 -12 -8 -20 -2 -16 5 3 12 -1 15 -9 4 -9 1 -12
-7 -9 -8 3 -17 0 -22 -7 -4 -7 -3 -10 4 -6 5 4 21 3 34 -2 12 -6 17 -10 10
-10 -7 -1 -10 -6 -7 -11 4 -6 12 -7 18 -3 8 4 7 1 -1 -9 -11 -14 -10 -18 5
-28 13 -8 13 -10 2 -7 -9 3 -16 -1 -16 -9 0 -9 6 -13 15 -9 10 3 12 0 8 -10
-3 -8 -1 -15 4 -15 6 0 10 -5 10 -11 0 -5 -6 -7 -12 -3 -8 4 -10 3 -5 -2 5 -5
14 -9 19 -9 6 0 13 -6 16 -14 3 -10 0 -12 -11 -8 -11 4 -14 2 -10 -9 3 -9 12
-13 21 -9 12 4 11 1 -3 -15 -12 -14 -14 -20 -6 -18 7 2 16 -3 19 -11 3 -9 0
-11 -8 -6 -9 5 -11 4 -6 -4 4 -6 12 -8 18 -5 7 5 9 0 6 -13 -3 -13 2 -27 13
-37 10 -8 16 -22 13 -30 -3 -8 -1 -17 5 -21 6 -3 11 -15 11 -26 0 -14 4 -18
13 -13 8 5 8 2 -2 -9 -10 -13 -10 -17 -1 -17 10 0 10 -3 0 -15 -7 -9 -10 -18
-6 -22 3 -3 6 -1 6 5 0 7 5 12 12 12 6 0 8 -3 5 -7 -4 -3 1 -12 11 -19 16 -13
16 -13 0 -14 -10 0 -18 -4 -18 -9 0 -6 10 -8 22 -6 16 4 19 2 10 -7 -16 -16
-15 -31 1 -22 7 5 6 0 -3 -11 -14 -17 -13 -17 10 -11 l25 7 -24 -14 c-20 -12
-21 -15 -7 -20 11 -5 15 -3 10 5 -5 7 -3 8 5 3 9 -5 9 -11 3 -17 -12 -12 -5
-38 10 -38 6 0 4 8 -3 18 -13 15 -12 16 4 3 13 -10 15 -17 6 -27 -9 -11 -8
-14 4 -14 10 0 13 -6 10 -20 -3 -11 -9 -20 -14 -20 -5 0 -1 -8 9 -18 9 -11 20
-17 24 -15 12 6 19 -15 7 -23 -8 -5 -9 -3 -4 6 5 8 4 11 -3 6 -6 -4 -9 -13 -6
-21 4 -8 11 -12 17 -8 6 4 8 0 4 -10 -3 -9 1 -23 9 -32 14 -14 11 -19 -9 -16
-17 3 15 -41 36 -49 17 -7 18 -9 5 -9 -12 -1 -15 -6 -11 -17 5 -13 7 -13 14
-2 6 9 9 9 9 1 0 -7 -8 -17 -17 -23 -14 -9 -14 -10 -2 -7 9 3 22 1 30 -4 12
-7 12 -9 0 -9 -11 0 -10 -5 4 -20 10 -11 15 -20 11 -20 -4 0 -1 -10 5 -22 10
-20 10 -22 -2 -13 -8 6 -7 2 3 -7 17 -16 17 -17 1 -21 -17 -4 -17 -5 0 -6 10
-1 17 -9 17 -21 0 -28 2 -33 17 -49 8 -7 12 -19 9 -26 -3 -8 2 -16 10 -19 8
-3 14 -11 14 -18 0 -9 -3 -8 -10 2 -6 9 -10 10 -10 3 0 -6 7 -19 16 -27 9 -9
11 -16 4 -16 -6 0 -8 -5 -5 -10 4 -6 10 -8 14 -6 4 3 7 -11 6 -30 0 -25 6 -42
23 -59 16 -17 20 -25 11 -31 -8 -5 -10 -3 -4 7 5 8 4 10 0 6 -16 -14 -14 -36
3 -30 10 4 13 2 8 -5 -4 -8 0 -12 11 -13 16 0 16 -1 -2 -9 -18 -8 -19 -9 -1
-9 12 -1 16 -6 12 -16 -3 -8 0 -15 7 -15 8 0 6 -4 -3 -10 -10 -6 -11 -10 -2
-10 6 0 12 -7 12 -16 0 -8 -4 -12 -10 -9 -6 3 -7 -1 -3 -10 5 -13 7 -14 14 -3
5 7 9 10 10 6 1 -5 3 -12 4 -18 1 -5 3 -18 4 -27 1 -16 3 -16 11 -3 5 8 10 10
10 5 0 -6 -6 -17 -12 -24 -11 -11 -10 -13 3 -8 9 3 16 0 16 -9 0 -7 -4 -11 -8
-8 -4 2 -11 0 -14 -6 -4 -6 -3 -10 2 -9 22 4 31 -4 35 -31 2 -16 0 -32 -6 -34
-6 -2 -3 -5 7 -5 19 -1 24 -31 5 -31 -9 0 -8 -3 2 -10 8 -5 15 -15 15 -22 1
-7 6 -12 13 -11 7 2 9 -4 5 -14 -4 -10 -2 -14 4 -10 5 3 10 0 10 -8 0 -8 -4
-12 -9 -9 -4 3 -5 -2 -2 -10 3 -9 10 -14 14 -11 5 3 12 0 16 -6 4 -7 3 -10 -2
-7 -5 3 -14 0 -21 -7 -10 -10 -9 -14 3 -19 9 -3 12 -11 8 -17 -4 -8 -3 -9 5
-5 9 6 9 11 0 22 -8 10 -8 14 0 14 6 0 12 -4 12 -10 3 -20 4 -25 13 -39 7 -11
6 -12 -5 -6 -12 8 -12 6 0 -8 9 -12 10 -17 2 -17 -7 0 -9 -5 -6 -10 4 -6 10
-8 15 -5 5 3 12 0 16 -6 4 -8 3 -9 -4 -5 -7 4 -12 2 -12 -4 0 -6 -5 -8 -12 -4
-6 4 5 -14 25 -40 20 -26 33 -54 30 -62 -3 -8 3 -22 14 -32 10 -9 13 -13 6 -8
-10 6 -12 4 -7 -8 3 -9 11 -16 18 -16 6 0 4 -5 -4 -10 -13 -8 -13 -11 -1 -22
10 -10 12 -10 7 0 -10 18 -1 15 15 -5 10 -11 10 -14 2 -9 -7 4 -13 2 -13 -3 0
-6 4 -11 10 -11 5 0 7 -7 4 -15 -5 -11 -2 -14 12 -8 17 6 17 4 -1 -13 -12 -10
-14 -14 -6 -9 12 8 13 6 8 -7 -4 -11 0 -18 11 -21 15 -4 15 -5 -1 -6 -15 -1
-13 -5 10 -26 17 -15 21 -23 11 -19 -11 4 -18 1 -18 -7 0 -7 3 -9 7 -6 3 4 13
1 21 -6 11 -8 14 -8 9 0 -4 6 -3 14 3 18 6 4 8 10 5 14 -2 5 6 17 19 26 21 16
22 20 9 33 -13 14 -13 17 4 26 10 6 19 19 21 30 2 13 -1 16 -10 10 -10 -6 -10
-4 1 9 7 9 11 23 8 31 -4 10 -1 13 9 9 7 -3 14 0 14 6 0 6 -6 11 -12 11 -10 0
-9 3 1 9 7 5 11 14 7 19 -4 7 1 10 11 8 15 -3 18 3 17 43 0 25 4 51 9 58 5 7
5 18 1 25 -6 9 -3 9 9 -1 15 -12 17 -12 11 4 -5 13 -4 16 5 10 10 -6 11 -3 2
13 -8 15 -8 23 1 28 6 4 8 3 4 -4 -3 -6 -2 -13 3 -16 11 -7 9 13 -2 32 -5 7
-2 14 7 18 13 5 13 10 4 27 -10 20 -10 21 6 8 14 -12 16 -12 10 4 -5 12 -4 16
3 12 6 -4 16 -1 22 6 8 10 7 14 -4 14 -8 0 -11 -5 -8 -10 3 -6 1 -7 -5 -3 -17
10 -2 38 17 31 13 -5 14 -4 4 6 -15 15 -17 33 -3 24 6 -3 10 4 10 17 0 19 -2
20 -11 8 -9 -13 -10 -13 -6 0 2 8 9 16 15 16 7 1 17 2 23 3 5 0 7 6 4 11 -4 6
-11 8 -17 4 -5 -3 -2 8 6 25 9 17 17 34 17 38 3 20 12 32 19 28 5 -3 6 4 3 15
-3 11 -10 17 -16 13 -6 -3 -7 -1 -3 6 6 9 11 9 22 0 12 -10 13 -9 8 6 -5 11
-4 16 3 12 6 -4 8 3 5 20 -3 18 -1 24 7 19 6 -4 11 -2 11 3 0 6 -5 11 -12 11
-6 0 -1 9 12 20 15 13 18 20 9 20 -11 0 -11 2 1 10 13 9 13 10 0 10 -12 0 -13
2 -1 9 8 5 10 14 5 22 -6 10 -3 10 11 -1 17 -14 18 -14 6 9 -8 15 -9 21 -2 17
7 -4 11 1 11 13 0 12 6 21 13 21 7 0 8 3 2 8 -5 4 -11 13 -13 21 -3 12 -1 12
14 0 16 -13 16 -12 5 10 -7 13 -9 21 -3 17 12 -7 25 21 16 35 -3 5 -11 6 -17
2 -7 -3 -3 3 7 15 21 25 36 31 16 7 -9 -10 -9 -15 -1 -15 6 0 11 3 12 8 0 4 2
17 5 30 3 16 0 21 -8 16 -10 -5 -10 -3 0 7 11 12 14 12 22 -1 5 -8 10 -10 10
-4 0 6 -3 14 -7 18 -14 13 -12 38 2 32 8 -3 17 0 21 6 4 6 3 8 -3 5 -6 -4 -13
0 -16 8 -4 9 -1 12 7 9 9 -3 14 3 14 20 0 15 -5 23 -11 19 -6 -3 -7 -1 -3 5 4
7 15 12 24 12 10 0 13 3 7 8 -5 4 -11 13 -13 21 -3 12 0 12 12 2 12 -10 14 -9
9 10 -5 17 -3 20 8 14 12 -8 12 -6 0 8 -9 11 -10 17 -2 17 6 0 11 5 11 11 0 5
-6 7 -12 3 -10 -6 -10 -5 -1 7 6 8 11 18 11 22 0 5 4 12 8 15 4 4 4 2 0 -5 -3
-6 -1 -15 6 -19 7 -4 10 -4 6 1 -4 4 -2 17 4 29 18 33 19 48 1 42 -13 -5 -14
-4 -3 9 7 8 16 13 20 10 5 -3 12 0 16 6 4 8 3 9 -4 5 -8 -5 -11 1 -10 18 1 13
6 22 10 20 4 -3 8 0 8 6 0 6 6 8 13 4 10 -6 10 -4 0 7 -17 17 -17 32 0 23 6
-4 9 -4 5 1 -4 4 -3 14 4 22 9 11 7 12 -8 7 -18 -5 -18 -5 -2 9 14 11 15 16 5
27 -10 10 -8 10 10 1 21 -11 22 -10 13 13 -6 17 -6 27 2 32 6 4 8 3 4 -4 -3
-6 -3 -13 2 -16 4 -2 9 4 9 15 1 10 -3 19 -10 19 -6 0 -2 7 9 16 10 8 14 13 7
10 -6 -4 -14 -2 -18 4 -3 5 1 10 10 10 10 0 13 5 9 12 -5 8 -2 9 10 5 10 -4
15 -3 11 3 -3 6 0 10 7 10 10 0 9 3 -2 11 -12 8 -12 12 -2 16 10 4 10 8 0 21
-11 13 -10 15 5 9 15 -6 16 -4 6 15 -10 18 -9 20 5 15 9 -4 15 -3 15 1 -3 21
2 32 13 26 7 -5 8 -3 3 5 -5 9 -10 10 -18 2 -6 -6 -16 -11 -21 -11 -6 0 -3 5
7 11 9 6 15 14 12 20 -3 5 0 6 8 3 8 -3 14 1 14 10 0 8 -5 12 -11 9 -6 -4 -5
0 1 9 7 8 10 18 6 21 -3 4 -1 7 5 7 7 0 11 3 10 8 -3 11 14 56 23 63 5 3 10
17 11 32 2 22 5 24 18 14 25 -19 26 -20 5 -13 -18 7 -18 5 3 -14 12 -12 20
-25 17 -31 -4 -5 1 -9 9 -9 10 0 13 -6 9 -17 -5 -12 -3 -14 8 -8 12 7 12 6 1
-7 -9 -11 -10 -18 -2 -23 5 -3 10 -15 10 -26 0 -10 3 -19 8 -19 4 0 12 -11 19
-25 6 -14 7 -23 2 -19 -5 3 -6 -2 -3 -10 3 -9 11 -13 16 -10 6 4 5 -2 -1 -14
-10 -19 -9 -20 15 -16 23 4 25 3 11 -10 -15 -15 -12 -60 3 -51 13 8 19 -22 7
-34 -9 -9 -8 -11 7 -5 16 6 17 4 7 -14 -9 -17 -7 -23 11 -36 20 -14 18 -21 -5
-17 -5 1 -6 -3 -2 -9 3 -6 11 -7 17 -4 8 5 9 1 5 -10 -4 -11 -3 -15 4 -10 6 4
10 -1 8 -12 -3 -27 11 -55 25 -47 6 4 5 -1 -3 -10 -9 -11 -10 -17 -2 -17 6 0
11 -9 11 -20 0 -11 5 -20 11 -20 7 0 9 -9 6 -21 -4 -15 -2 -18 7 -10 9 8 13 7
13 -4 0 -8 -4 -15 -9 -15 -5 0 -3 -6 4 -14 7 -8 16 -12 20 -9 4 2 5 -2 2 -10
-3 -8 2 -22 11 -31 9 -9 12 -16 6 -16 -6 0 -17 14 -26 30 -9 17 -18 30 -21 30
-8 0 17 -43 40 -69 14 -16 17 -25 9 -28 -8 -3 -7 -10 4 -23 9 -10 20 -17 25
-14 4 3 8 0 8 -6 0 -7 -7 -10 -15 -6 -8 3 -15 1 -15 -4 0 -5 9 -12 20 -15 11
-3 20 -10 20 -15 0 -5 -8 -7 -17 -3 -12 4 -10 -1 7 -16 14 -12 20 -20 13 -17
-6 4 -15 2 -18 -4 -4 -6 -3 -10 2 -9 19 3 34 -2 29 -10 -3 -5 1 -14 9 -21 11
-9 12 -17 4 -33 -10 -17 -9 -19 7 -13 18 6 18 5 0 -9 -20 -15 -20 -15 0 -15
16 0 17 -2 4 -10 -11 -7 -11 -10 -2 -10 8 0 10 -5 6 -12 -6 -9 -3 -9 9 0 14
12 15 11 11 -12 -3 -17 2 -28 13 -35 10 -6 13 -11 7 -11 -7 0 -14 -7 -18 -15
-3 -8 -2 -14 2 -14 18 3 35 -2 29 -8 -4 -3 1 -12 11 -20 9 -8 11 -12 5 -8 -7
3 -13 2 -13 -4 0 -5 6 -12 13 -14 10 -4 10 -6 0 -6 -7 -1 -13 -6 -13 -12 0 -5
5 -7 11 -3 9 5 10 -1 5 -22 -7 -28 -7 -28 9 -9 9 11 14 15 11 8 -4 -6 -1 -15
5 -19 8 -5 8 -8 0 -13 -8 -5 -3 -17 13 -36 14 -16 23 -32 20 -37 -3 -4 2 -20
10 -36 12 -23 12 -32 3 -42 -9 -10 -9 -11 2 -5 11 6 13 4 8 -9 -4 -9 -3 -15 2
-11 6 3 14 -3 20 -12 7 -13 5 -23 -6 -35 -14 -15 -13 -16 9 -11 13 2 19 1 13
-4 -20 -17 -17 -36 6 -30 16 4 19 3 10 -6 -14 -14 -15 -30 0 -22 7 5 9 -3 6
-25 -4 -21 -1 -33 9 -37 17 -6 18 -34 2 -53 -7 -8 -2 -6 11 5 l24 20 -8 -24
c-5 -17 -4 -22 5 -16 10 6 11 1 6 -18 -3 -15 -1 -29 6 -33 7 -5 8 -3 3 6 -6 9
-4 11 5 5 10 -6 9 -11 -6 -23 -16 -12 -16 -14 -2 -9 10 3 20 2 23 -3 4 -6 1
-10 -4 -10 -6 0 -11 -5 -11 -11 0 -6 7 -9 14 -6 11 4 13 1 9 -10 -5 -12 -3
-14 7 -8 10 6 11 4 4 -6 -14 -23 -13 -37 4 -51 15 -11 15 -11 4 4 -10 12 -10
18 -1 24 7 4 9 3 5 -4 -3 -6 -2 -14 4 -17 8 -5 7 -11 -1 -21 -9 -11 -8 -14 7
-14 16 0 17 -2 4 -10 -12 -8 -12 -10 5 -10 17 0 17 -2 5 -10 -13 -9 -13 -10 0
-10 13 0 13 -1 0 -10 -13 -9 -13 -10 0 -11 8 -1 18 -1 22 0 8 1 5 -20 -6 -38
-7 -11 -5 -13 6 -9 8 4 15 0 15 -8 0 -7 -3 -11 -7 -9 -3 2 -7 -5 -7 -16 -1
-10 3 -19 8 -19 6 0 7 5 4 10 -3 6 -1 10 5 10 7 0 10 -6 7 -14 -3 -7 -1 -18 5
-24 8 -8 7 -16 -3 -29 -12 -16 -12 -17 2 -6 9 7 28 14 42 15 14 1 23 6 20 11
-2 4 1 14 7 22 10 12 10 19 -1 32 -12 14 -12 16 0 8 11 -6 13 -4 8 8 -4 11 -1
17 8 17 7 0 17 4 20 10 3 5 0 7 -8 4 -8 -3 -14 1 -14 10 0 8 4 13 9 10 5 -4 9
0 7 7 -3 29 1 41 14 36 8 -3 14 1 14 9 0 7 -4 11 -8 9 -12 -8 -18 21 -7 36 8
11 9 10 4 -3 -3 -10 -1 -18 4 -18 6 0 10 11 10 24 0 13 7 29 15 36 11 9 12 17
4 31 -6 12 -6 19 0 19 5 0 12 -6 15 -12 4 -9 5 -8 5 2 -2 31 1 41 13 34 7 -5
8 -3 2 7 -13 21 -14 40 -1 32 7 -4 8 0 3 12 -5 15 -4 16 9 5 20 -16 19 -6 -1
14 -14 15 -14 16 2 16 13 0 14 3 5 14 -9 11 -9 16 0 22 8 4 9 3 5 -4 -4 -7 -2
-12 5 -12 7 0 10 11 7 30 -3 21 -1 27 7 20 8 -7 12 -5 12 5 0 8 -5 15 -11 16
-6 0 -2 4 9 9 11 5 14 9 7 9 -10 1 -10 6 -2 21 6 12 16 18 23 14 7 -4 4 2 -6
13 -14 16 -14 20 -2 20 8 0 11 -5 8 -11 -3 -6 0 -5 8 2 12 11 12 14 0 21 -11
7 -9 10 8 16 11 3 21 11 21 17 0 6 -6 6 -15 -2 -9 -7 -18 -10 -22 -6 -3 3 -1
6 6 6 8 0 11 8 8 20 -3 10 -2 19 2 18 18 -2 44 4 34 9 -7 2 -13 12 -13 20 0 8
6 13 13 10 8 -3 12 5 12 24 1 16 -3 25 -10 21 -5 -3 -4 2 4 11 7 9 17 14 22
11 5 -3 9 -2 8 3 -1 4 0 10 1 13 1 3 3 19 6 35 3 26 9 64 13 87 0 4 9 4 19 1
15 -6 15 -5 3 10 -12 15 -11 17 3 17 9 0 16 5 16 11 0 5 -4 8 -9 5 -5 -3 -11
0 -14 8 -4 10 1 12 16 9 22 -5 22 -5 2 11 -15 12 -16 15 -3 10 13 -4 16 0 14
20 -3 22 -1 24 11 14 12 -10 14 -8 11 8 -2 11 2 18 9 17 7 -2 10 3 7 11 -3 7
3 22 13 32 16 15 16 17 1 12 -9 -4 -19 -1 -22 7 -3 10 0 12 11 8 13 -5 14 -3
4 16 -9 16 -9 21 0 19 6 -2 14 3 16 10 3 6 0 12 -5 12 -6 0 2 13 17 29 25 27
39 67 19 55 -4 -3 -8 -1 -8 5 0 5 6 12 13 14 9 4 9 8 -1 15 -11 7 -9 10 7 15
15 3 20 13 19 36 -1 19 6 37 16 44 10 7 16 22 14 33 -2 13 2 18 12 16 8 -2 12
0 8 4 -4 4 -3 13 3 21 9 9 8 13 0 13 -6 0 -11 -4 -11 -10 0 -5 -5 -10 -12 -10
-6 0 -1 12 13 27 13 14 19 23 12 20 -7 -5 -10 -1 -8 10 1 10 9 17 18 17 10 -1
14 5 12 17 -2 11 0 19 4 19 5 0 8 8 7 18 0 9 5 16 12 14 8 -1 11 2 7 8 -3 6
-10 8 -14 6 -4 -3 -8 1 -8 8 0 8 6 12 12 10 7 -3 11 4 10 18 -1 12 4 34 12 48
7 14 13 31 13 38 0 6 5 12 11 12 5 0 7 -6 3 -12 -4 -7 -3 -9 1 -5 12 10 15 37
5 34 -7 -2 -10 3 -10 18 0 3 9 1 20 -5 19 -10 20 -9 9 8 -10 16 -9 24 4 43 15
21 15 24 -1 43 -9 11 -11 16 -5 12 7 -4 23 0 35 9 l23 17 -22 -7 c-31 -9 -29
1 5 20 15 9 20 14 10 11 -19 -5 -19 25 0 32 7 2 12 8 12 13 0 6 -6 7 -12 3 -9
-5 -9 -3 1 9 7 9 17 15 21 12 5 -3 6 5 2 17 -3 12 -1 19 4 15 6 -3 11 3 11 14
1 12 -3 17 -9 13 -7 -4 -8 -2 -4 4 4 7 15 12 24 12 13 0 13 2 -4 16 -10 8 -13
12 -5 8 11 -5 13 -3 8 10 -4 10 -3 15 3 11 6 -3 10 1 10 9 0 9 6 16 13 16 9 0
9 2 -1 9 -11 7 -10 9 3 15 9 3 14 10 10 15 -3 5 -1 13 5 16 6 4 8 15 5 26 -5
13 -2 17 8 14 8 -4 14 0 14 9 0 8 -4 13 -9 10 -4 -3 -8 0 -8 5 0 6 4 11 9 11
6 0 8 9 6 20 -4 22 10 28 18 8 3 -7 4 -3 4 9 -1 12 -4 20 -7 18 -4 -2 -7 2 -7
11 0 9 7 13 21 9 12 -3 15 -2 9 1 -7 3 -13 10 -13 15 0 6 4 8 8 5 5 -3 9 1 9
9 0 8 -4 12 -8 10 -10 -7 -5 22 6 32 4 4 5 3 2 -3 -3 -6 -1 -11 6 -11 7 0 13
8 13 18 0 10 -3 16 -7 13 -10 -6 -5 24 6 33 4 4 5 2 1 -4 -4 -8 -1 -13 9 -13
9 0 13 4 10 10 -13 22 -13 49 1 54 9 3 12 11 8 18 -4 7 -4 10 1 6 11 -10 35
24 27 37 -10 16 -11 36 -1 29 5 -3 9 0 9 6 0 6 5 8 13 4 7 -5 6 0 -3 11 -14
17 -14 18 10 5 23 -12 24 -12 10 4 -12 16 -12 20 0 30 8 6 15 18 15 26 0 8 10
16 23 18 12 2 22 7 22 12 0 5 -8 6 -17 3 -16 -6 -16 -5 1 12 11 11 25 20 33
20 7 0 12 4 12 9 -1 14 30 28 43 20 7 -5 8 -3 3 6 -6 10 -4 12 8 7 9 -3 19 -1
23 5 4 6 3 8 -4 4 -6 -3 -13 -2 -16 2 -7 11 35 9 53 -2 11 -7 13 -5 9 6 -4 8
0 15 8 15 7 0 11 -4 8 -9 -3 -4 2 -5 10 -2 9 3 13 11 10 18 -3 6 2 2 10 -8 14
-18 16 -18 16 -3 0 15 3 16 22 6 18 -10 20 -9 14 7 -4 10 -4 15 0 11 4 -4 13
-2 20 4 9 8 11 5 8 -13 -4 -22 -4 -22 6 2 8 17 8 26 1 28 -20 7 -11 21 10 17
12 -3 18 -1 15 3 -4 4 -13 7 -19 7 -7 0 -11 9 -10 20 1 11 0 14 -3 8 -9 -20
-27 -15 -20 4 6 14 3 14 -15 -3 -12 -10 -19 -13 -14 -5 6 10 2 11 -16 6 -22
-7 -23 -7 -9 10 13 17 13 18 0 10 -8 -6 -18 -10 -22 -10 -3 0 -10 -4 -15 -9
-5 -5 -2 -6 6 -1 10 6 12 4 7 -4 -6 -9 -12 -8 -26 4 -12 11 -20 13 -25 6 -9
-15 -25 -14 -21 2 1 6 1 9 -1 4 -3 -4 -10 -4 -15 -1 -6 4 -8 2 -4 -4 3 -6 2
-13 -4 -17 -5 -3 -10 2 -11 12 0 11 -3 13 -6 5 -2 -6 -9 -10 -14 -6 -5 3 -9
-1 -9 -8 0 -10 -2 -10 -8 -1 -4 7 -27 14 -50 16 -29 2 -39 0 -32 -8 6 -7 3
-11 -10 -11 -10 0 -16 4 -14 8 8 13 -21 9 -35 -4 -11 -11 -13 -10 -8 5 8 22
-2 22 -18 0 -9 -13 -14 -13 -20 -3 -6 9 -4 11 5 5 8 -5 11 -4 6 3 -4 6 -13 9
-21 6 -8 -4 -13 -9 -11 -13 3 -4 -4 -7 -15 -7 -10 0 -19 4 -19 8 0 4 5 8 12 8
6 0 8 3 5 6 -4 4 -12 2 -20 -4 -7 -6 -18 -7 -26 -2 -18 11 -43 1 -34 -14 4 -6
0 -6 -9 2 -13 10 -17 10 -21 0 -4 -8 -6 -7 -6 5 -1 9 -5 17 -11 17 -5 0 -6 -8
-3 -17 6 -16 5 -16 -11 -3 -20 16 -49 23 -41 10 3 -5 -10 -6 -30 -3 -26 4 -35
2 -35 -8 0 -8 -3 -10 -8 -4 -4 6 -16 17 -27 25 -18 14 -19 14 -7 -2 9 -11 10
-18 2 -23 -5 -3 -10 -1 -10 4 0 13 -22 10 -32 -4 -5 -6 -8 -5 -8 4 0 11 -3 11
-17 0 -15 -12 -16 -12 -9 6 6 18 5 17 -14 -3 -14 -14 -20 -31 -17 -43 5 -17 3
-18 -9 -8 -12 10 -13 9 -8 -5 7 -19 30 -21 38 -3 3 6 3 2 0 -10 -6 -24 -3 -25
49 -25 15 -1 27 -5 27 -9 0 -5 5 -9 11 -9 5 0 7 5 3 12 -4 7 -3 8 5 4 6 -4 9
-10 7 -14 -2 -4 3 -13 11 -21 13 -12 15 -11 9 10 -3 13 -3 18 0 11 3 -6 10
-10 15 -7 5 4 6 -2 2 -11 -4 -11 -2 -15 4 -11 6 4 14 0 17 -9 3 -8 10 -12 16
-9 5 3 7 0 4 -8 -3 -8 0 -18 7 -23 7 -4 10 -3 6 3 -3 5 0 10 7 10 8 0 12 -7 8
-15 -3 -10 -1 -13 6 -8 8 5 10 2 6 -8 -3 -9 1 -22 9 -31 12 -11 17 -12 20 -2
3 6 4 1 3 -13 -1 -14 -6 -32 -11 -39 -5 -9 -4 -12 3 -7 6 3 14 1 19 -6 11 -19
13 -39 2 -32 -5 3 -7 10 -4 15 4 5 1 9 -5 9 -8 0 -9 -7 -5 -17 3 -10 7 -22 8
-28 1 -5 7 -13 12 -17 6 -4 1 -8 -10 -8 -16 0 -17 -2 -5 -10 8 -5 11 -12 7
-16 -3 -4 -15 -1 -24 7 -16 12 -17 12 -7 -1 6 -8 10 -24 7 -35 -2 -11 -5 -29
-6 -40 -2 -11 -8 -19 -13 -18 -7 1 -9 -9 -6 -24 3 -18 1 -24 -6 -19 -8 5 -10
1 -5 -10 4 -12 3 -15 -5 -10 -8 5 -10 1 -5 -10 4 -10 2 -15 -4 -11 -5 3 -10 0
-10 -8 0 -8 4 -12 8 -10 9 6 6 -16 -4 -32 -5 -7 -5 -19 -1 -25 4 -7 -3 -4 -16
7 -13 11 -20 13 -15 6 13 -23 13 -62 -1 -51 -7 7 -11 5 -11 -5 0 -8 5 -15 11
-15 6 0 3 -5 -7 -11 -15 -9 -16 -13 -6 -25 10 -13 8 -14 -14 -10 -15 3 -27 0
-27 -5 0 -5 7 -9 16 -7 10 2 19 -3 22 -11 3 -9 0 -11 -8 -6 -10 6 -12 3 -8
-13 4 -13 2 -19 -6 -16 -7 3 -13 -8 -14 -28 -2 -18 -8 -35 -13 -39 -8 -4 -7
-9 2 -13 8 -3 4 -4 -9 -2 -16 3 -21 1 -14 -7 13 -18 9 -35 -13 -52 -11 -9 -15
-14 -9 -11 7 3 14 -3 17 -15 5 -17 3 -18 -9 -8 -12 10 -13 9 -8 -6 6 -14 4
-16 -6 -10 -8 5 -11 4 -6 -3 3 -5 0 -13 -6 -16 -7 -3 -2 -3 12 0 21 4 22 3 7
-6 -9 -6 -14 -16 -11 -22 5 -8 1 -9 -10 -5 -14 6 -15 4 -5 -15 10 -18 9 -20
-7 -14 -17 7 -17 6 0 -13 18 -20 18 -20 -3 -16 -11 2 -24 -1 -27 -7 -4 -6 -3
-8 3 -5 6 4 13 -2 16 -12 3 -13 0 -18 -8 -15 -7 3 -16 0 -20 -6 -3 -6 -2 -9 3
-8 6 2 10 -1 10 -7 0 -5 -4 -9 -9 -7 -6 1 -5 -7 2 -19 9 -17 8 -20 -2 -14 -9
6 -11 3 -6 -9 4 -11 1 -19 -11 -24 -9 -4 -18 -13 -20 -21 -3 -12 -1 -12 14 0
16 13 16 12 4 -8 -8 -12 -18 -19 -22 -17 -4 3 -8 -4 -8 -15 0 -11 -7 -24 -16
-29 -15 -8 -15 -10 0 -15 10 -4 15 -3 12 1 -2 4 2 16 10 27 8 10 14 14 14 9 0
-6 -3 -14 -7 -18 -5 -4 -8 -13 -8 -19 0 -7 -6 -13 -12 -13 -26 -3 -28 -5 -13
-14 13 -8 13 -10 -2 -10 -9 0 -20 -4 -23 -10 -4 -6 1 -7 11 -3 11 4 15 3 11
-4 -4 -6 -1 -14 5 -16 8 -3 5 -6 -6 -6 -12 -1 -16 -6 -12 -16 4 -10 1 -15 -9
-13 -7 2 -14 -1 -13 -7 0 -5 4 -9 9 -8 4 2 6 -4 3 -12 -4 -8 -11 -12 -18 -8
-6 3 -6 0 2 -8 10 -11 8 -17 -10 -32 -13 -10 -17 -16 -10 -12 16 8 15 -3 -2
-20 -7 -8 -17 -11 -21 -7 -5 4 -5 1 -1 -6 6 -10 11 -10 22 -1 12 10 13 9 8 -5
-3 -9 -11 -16 -16 -16 -6 0 -4 -7 3 -17 13 -15 12 -15 -11 -3 -23 12 -24 12
-11 -3 10 -13 10 -17 1 -17 -10 0 -10 -3 -1 -14 9 -11 9 -16 0 -22 -8 -4 -9
-3 -5 4 4 7 3 12 -2 12 -14 0 -23 -28 -11 -36 6 -4 7 -10 0 -17 -5 -7 -10 -16
-11 -22 -1 -5 -4 -12 -7 -15 -4 -3 -3 1 2 9 6 10 4 12 -4 7 -9 -6 -9 -11 0
-22 8 -10 8 -14 0 -15 -26 -3 -30 -4 -38 -12 -4 -5 -3 -8 2 -7 21 5 36 0 30
-10 -4 -6 -12 -7 -18 -3 -8 4 -7 1 1 -9 9 -12 10 -18 2 -23 -6 -4 -9 -13 -6
-21 3 -9 0 -11 -12 -7 -13 5 -14 3 -5 -7 9 -10 8 -21 -5 -49 -9 -20 -21 -39
-27 -43 -6 -5 -5 -8 3 -8 7 0 10 -5 7 -10 -4 -6 -10 -8 -14 -6 -6 4 -10 -11
-13 -52 -1 -9 -5 -9 -12 -2 -13 13 -29 13 -21 0 3 -6 1 -10 -4 -10 -14 0 -14
13 1 28 16 16 -4 16 -22 -1 -12 -10 -12 -9 -1 5 16 21 7 53 -11 42 -10 -6 -10
-4 0 8 10 13 10 19 -3 32 -11 11 -12 16 -4 16 7 0 3 8 -9 18 -19 17 -19 19 -4
29 14 10 13 10 -8 5 -24 -5 -24 -5 -7 12 10 10 15 21 12 24 -3 4 -10 0 -15 -8
-6 -8 -10 -10 -10 -5 0 6 5 16 12 23 9 9 6 11 -13 7 -23 -4 -23 -4 -5 10 15
11 16 15 5 15 -11 0 -15 9 -13 30 1 17 -3 33 -9 37 -5 3 -7 1 -3 -5 3 -6 1
-14 -5 -18 -7 -4 -9 -3 -5 4 3 6 2 13 -4 17 -6 4 -7 11 -4 17 4 5 -3 23 -15
39 -12 16 -15 26 -8 23 8 -3 14 2 14 11 0 9 -6 14 -13 11 -8 -3 -16 0 -20 6
-4 7 -3 8 4 4 7 -4 12 -2 12 3 0 6 -5 11 -11 11 -6 0 -9 11 -7 25 2 15 -4 30
-17 40 -11 9 -14 13 -6 9 11 -5 13 -3 8 9 -4 10 -1 17 5 17 6 0 8 3 5 6 -4 4
-14 1 -24 -7 -9 -8 -14 -9 -10 -2 4 6 3 14 -2 18 -6 3 -8 12 -4 20 3 9 -1 15
-8 15 -12 0 -12 2 -1 9 11 7 10 9 -3 14 -13 6 -14 11 -5 28 7 11 9 23 6 27 -3
3 -6 0 -6 -8 0 -9 -3 -10 -14 -1 -8 7 -12 21 -8 33 3 13 1 19 -5 15 -5 -3 -10
0 -10 8 0 8 4 15 9 15 5 0 6 5 3 10 -4 6 -10 8 -15 5 -4 -3 -10 4 -13 16 -5
17 -3 18 11 7 9 -7 3 4 -13 26 -29 38 -42 72 -24 60 5 -3 7 -9 4 -14 -3 -5 -1
-11 4 -14 5 -4 8 0 6 6 -9 38 -18 58 -27 58 -5 0 -6 -5 -2 -12 4 -6 3 -8 -3
-5 -6 4 -8 19 -5 33 4 21 2 25 -9 19 -11 -7 -11 -5 1 10 9 11 10 16 3 11 -13
-7 -15 -1 -16 42 0 24 -12 30 -21 10 -3 -7 -3 -3 0 10 3 12 1 22 -5 22 -6 0
-11 5 -11 11 0 5 4 8 9 4 5 -3 13 0 17 6 4 7 3 9 -3 6 -6 -4 -17 1 -24 10 -8
9 -9 14 -4 11 6 -4 11 2 11 12 0 14 -3 16 -13 8 -12 -10 -17 -4 -14 16 1 4 -4
14 -10 22 -6 8 -8 14 -3 14 5 0 2 5 -6 11 -13 9 -12 10 3 5 17 -5 16 -3 -2 20
-22 28 -20 44 5 44 10 0 12 5 8 13 -5 7 0 6 11 -3 11 -9 16 -10 11 -2 -4 6 -3
12 3 12 5 0 12 -4 15 -9 7 -11 32 -9 43 4 4 4 2 5 -6 0 -9 -5 -12 -4 -7 3 9
15 38 3 29 -12 -3 -6 -1 -6 8 2 7 6 17 12 22 12 4 0 5 -6 1 -12 -5 -8 0 -7 11
2 11 9 16 10 11 3 -4 -7 -2 -13 3 -13 6 0 11 8 11 18 0 14 2 15 10 2 12 -19
63 -22 56 -3 -7 17 -1 17 18 -3 9 -8 16 -11 16 -5 0 6 5 11 11 11 5 0 7 -6 3
-12 -5 -9 -2 -9 9 1 14 11 17 11 17 0 0 -8 5 -6 13 6 11 14 16 15 22 5 6 -9 4
-11 -5 -5 -8 5 -11 4 -7 -3 7 -11 20 -10 51 3 12 5 21 3 27 -6 5 -8 9 -9 9 -3
0 19 28 24 44 9 10 -10 16 -11 18 -3 2 6 12 12 21 14 9 1 15 -2 11 -7 -3 -5
-11 -6 -17 -3 -7 4 -9 3 -4 -1 10 -11 48 -14 41 -3 -8 13 10 10 25 -4 11 -10
13 -10 7 0 -9 16 6 16 23 0 11 -10 13 -10 7 0 -9 16 6 16 23 0 11 -10 13 -10
7 0 -4 6 -3 12 1 12 5 0 15 -6 22 -12 11 -10 13 -10 7 0 -9 16 6 16 23 0 11
-10 13 -10 7 0 -4 6 -3 12 1 12 5 0 15 -6 22 -12 11 -10 13 -10 7 0 -11 18 5
15 20 -5 13 -17 14 -17 8 1 -6 16 -4 17 13 8 15 -9 25 -8 39 3 11 8 14 15 8
15 -5 0 -16 -6 -24 -12 -12 -11 -12 -10 0 5 9 13 21 16 38 12 20 -5 22 -4 10
9 -7 7 -17 11 -22 8 -5 -3 -6 0 -2 6 4 6 14 9 24 6 15 -5 15 -4 1 8 -16 13
-15 38 2 38 6 0 7 -5 3 -12 -5 -7 -3 -8 6 -3 10 6 10 11 -3 20 -20 14 -23 30
-4 19 9 -6 9 -5 0 8 -7 8 -10 18 -6 22 4 3 -2 12 -12 20 -15 10 -17 17 -8 27
6 8 9 22 7 32 -2 14 2 17 14 12 13 -5 14 -3 5 6 -6 6 -9 18 -6 25 3 8 -1 14
-8 14 -11 0 -11 3 1 10 9 6 10 10 3 10 -6 0 -15 -5 -19 -11 -4 -8 -12 -3 -20
12 -7 13 -13 18 -14 12 0 -7 -5 -13 -11 -13 -5 0 -7 6 -3 13 5 8 2 8 -9 -2
-13 -10 -17 -10 -17 -1 0 9 -4 9 -17 -1 -9 -8 -14 -9 -10 -3 3 6 -1 11 -9 11
-8 0 -13 -5 -11 -12 3 -6 -4 -11 -14 -11 -11 0 -18 5 -15 11 2 7 -2 12 -10 12
-7 0 -11 -4 -9 -8 3 -4 -3 -6 -12 -4 -10 1 -17 9 -15 17 1 8 -4 15 -12 15 -8
0 -11 -7 -8 -19 2 -10 -1 -18 -7 -18 -6 0 -11 8 -12 18 0 14 -2 14 -9 -3 -9
-21 -9 -21 -15 9 -2 10 -9 24 -16 30 -9 8 -9 6 -1 -10 7 -12 7 -26 1 -35 -7
-12 -9 -12 -9 0 0 11 -4 9 -15 -5 -10 -13 -13 -14 -10 -3 4 10 0 16 -10 16 -8
0 -15 -4 -15 -9 0 -4 -5 -8 -11 -8 -5 0 -7 6 -3 13 6 9 4 9 -7 -1 -17 -16 -32
-16 -23 1 6 9 4 9 -8 -1 -9 -7 -19 -9 -21 -5 -7 11 -57 10 -74 0 -8 -5 -13 -3
-13 5 0 9 -3 9 -10 -2 -9 -13 -10 -13 -10 0 0 13 -1 13 -10 0 -8 -12 -11 -13
-19 -1 -7 11 -9 11 -14 0 -4 -12 -7 -11 -16 1 -10 13 -11 13 -11 0 0 -12 -2
-13 -9 -1 -7 11 -9 11 -14 0 -4 -10 -6 -10 -6 -1 -1 6 -6 12 -12 12 -5 0 -8
-4 -5 -8 2 -4 -4 -8 -14 -8 -11 0 -17 2 -15 5 3 2 -2 9 -11 16 -14 10 -14 12
0 24 14 11 16 11 16 -3 0 -9 5 -16 11 -16 6 0 8 7 5 17 -6 15 -4 14 14 -2 18
-16 20 -17 14 -2 -3 10 -1 17 5 17 6 0 11 -4 11 -10 0 -5 5 -10 10 -10 6 0 9
6 8 13 -2 6 4 11 12 9 8 -2 12 0 8 4 -4 4 -3 13 3 20 7 8 6 14 -2 20 -7 4 -9
3 -6 -3 4 -6 0 -16 -7 -22 -10 -9 -16 -9 -21 -1 -4 6 -1 9 6 8 7 -2 14 3 15
10 1 6 2 14 3 17 0 3 11 0 24 -6 18 -9 20 -9 10 2 -15 15 -17 33 -4 24 6 -3
15 3 21 12 10 16 11 16 5 -2 -6 -18 -4 -18 17 3 18 18 20 24 10 31 -18 11 -17
20 4 35 11 9 13 15 6 20 -6 4 -8 14 -5 23 5 12 3 14 -8 8 -9 -5 -7 -1 3 11 17
19 17 21 0 38 -16 18 -16 19 2 12 15 -5 17 -4 7 8 -9 11 -7 14 15 14 18 0 22
-4 15 -11 -14 -14 -14 -30 -1 -22 6 3 10 1 10 -4 0 -6 -5 -11 -11 -11 -8 0 -8
-5 1 -15 7 -8 9 -15 4 -15 -5 0 -2 -5 6 -10 11 -7 11 -10 2 -10 -10 0 -10 -5
-2 -22 11 -22 10 -22 -4 -4 -9 11 -16 24 -16 30 0 5 -3 7 -6 4 -3 -4 2 -21 11
-38 14 -27 15 -34 3 -42 -9 -6 -6 -7 10 -3 16 5 22 2 22 -9 0 -10 6 -13 17 -9
11 4 14 3 9 -5 -4 -7 -1 -12 9 -12 9 0 14 -4 11 -8 -2 -4 -1 -14 5 -22 6 -10
9 -11 9 -2 0 6 5 12 10 12 6 0 10 -7 10 -16 0 -9 5 -12 13 -8 8 5 7 2 -2 -9
-12 -15 -12 -17 2 -11 13 4 15 1 12 -18 -4 -22 -4 -22 10 -4 14 18 16 18 32 3
23 -20 34 -22 44 -5 7 11 9 11 9 -1 0 -9 4 -10 13 -4 6 6 20 9 30 8 9 -2 17 1
17 6 0 6 5 7 12 3 8 -5 9 -2 5 10 -5 13 -3 17 7 13 10 -4 12 0 9 14 -3 11 0
19 6 19 7 0 9 -6 5 -12 -4 -7 5 -2 19 11 15 13 24 27 22 32 -3 4 -1 10 5 14 5
3 10 21 10 40 0 18 6 35 13 38 7 2 8 8 3 13 -5 5 -11 4 -13 -3 -7 -20 -22 -15
-20 6 0 11 4 18 7 16 3 -2 6 7 6 21 0 16 -5 23 -13 20 -7 -3 -15 0 -19 6 -4 7
-3 8 4 4 8 -5 12 0 12 13 0 12 -4 21 -10 21 -14 0 -12 27 3 33 7 3 5 6 -5 6
-10 1 -20 12 -24 26 -4 15 -11 22 -18 18 -6 -4 -4 2 4 12 13 17 13 18 -1 13
-9 -4 -16 -1 -16 8 0 7 4 11 8 8 4 -2 11 1 15 7 4 8 3 9 -4 5 -7 -4 -12 -2
-12 4 0 6 -5 8 -12 4 -9 -5 -8 -2 1 9 8 10 11 20 7 24 -3 3 -6 1 -6 -5 0 -7
-5 -12 -11 -12 -5 0 -7 5 -4 10 3 6 0 10 -7 10 -9 0 -9 3 2 10 8 5 10 10 5 10
-6 0 -16 10 -24 23 l-14 22 24 -20 24 -20 -18 22 c-11 12 -16 26 -13 31 3 5
-1 9 -9 9 -8 0 -11 -5 -8 -10 3 -6 1 -7 -5 -3 -9 5 -9 13 0 29 11 21 10 21 -7
7 -11 -9 -16 -10 -11 -2 4 6 3 12 -2 12 -5 0 -9 7 -10 15 -1 8 -3 22 -4 30 -1
11 -5 12 -12 5 -16 -16 -30 -12 -16 5 10 12 10 15 0 15 -10 0 -10 3 0 15 15
18 -1 20 -19 3 -10 -11 -10 -8 -2 14 11 30 6 37 -22 33 -14 -3 -16 0 -7 10 8
9 6 14 -6 19 -9 3 -19 4 -23 1 -4 -2 -8 2 -8 10 0 8 5 11 10 8 6 -3 7 -1 3 5
-4 7 -13 12 -21 12 -20 0 -26 28 -8 38 11 6 12 11 4 16 -6 4 -11 3 -11 -2 0
-5 -7 -9 -15 -9 -8 0 -12 4 -9 8 2 4 -2 10 -8 12 -10 4 -10 7 0 15 11 7 11 10
-3 16 -9 3 -13 11 -9 17 4 7 -2 6 -17 -2 -22 -11 -23 -11 -10 5 8 9 11 19 7
23 -3 3 -6 1 -6 -5 0 -7 -5 -12 -11 -12 -6 0 -8 7 -5 17 6 16 6 16 -12 0 -15
-14 -19 -14 -19 -2 0 8 4 12 9 9 4 -3 8 0 8 5 0 6 -4 11 -10 11 -5 0 -10 5
-10 11 0 5 5 7 10 4 16 -10 11 1 -7 16 -11 10 -14 10 -9 2 4 -7 2 -13 -3 -13
-6 0 -11 5 -11 10 0 6 -6 10 -14 10 -8 0 -17 7 -20 16 -10 26 -7 29 10 8 15
-18 15 -18 4 3 -6 14 -16 20 -25 17 -15 -6 -54 31 -55 52 0 6 -12 16 -26 22
-16 8 -22 17 -18 25 4 6 -2 3 -14 -7 -12 -11 -22 -15 -22 -10 0 5 -5 2 -10 -6
-7 -11 -10 -11 -10 -2 0 8 -5 10 -12 6 -7 -4 -10 -4 -6 1 4 4 3 14 -3 21 -7 9
-6 12 8 9 10 -1 17 -7 16 -12 -1 -5 4 -10 12 -10 18 0 -14 46 -33 47 -7 0 -10
5 -7 10 4 6 11 7 17 4 7 -4 8 -2 4 5 -4 6 -11 9 -16 6 -9 -5 -25 24 -21 39 1
5 -4 4 -11 -2 -10 -7 -18 -8 -28 0 -12 8 -11 9 5 4 17 -5 18 -4 5 6 -9 7 -15
23 -14 35 1 15 -3 20 -14 15 -11 -4 -14 -1 -9 12 4 9 3 15 -2 11 -5 -3 -12 1
-15 7 -3 7 -3 2 0 -12 4 -22 4 -23 -6 -7 -7 10 -9 24 -7 31 3 8 1 18 -5 24 -8
8 -4 9 13 5 19 -5 22 -4 14 8 -12 16 -13 68 -2 87 6 8 2 12 -10 13 -17 0 -17
1 1 8 18 7 18 8 0 26 -17 17 -17 18 -2 12 10 -3 20 -2 23 3 4 6 -1 10 -10 10
-13 0 -15 6 -10 31 6 25 4 30 -6 23 -12 -6 -12 -5 -1 8 8 10 9 19 3 22 -10 6
-8 37 4 56 3 6 2 10 -3 10 -5 0 -9 7 -9 15 0 8 3 15 7 15 3 0 6 9 6 19 0 15
-3 17 -13 9 -18 -15 -16 -3 3 16 14 15 14 16 -1 16 -15 0 -15 1 -1 16 21 20
21 30 0 14 -12 -11 -15 -11 -12 1 2 8 9 19 17 25 11 9 12 12 1 19 -9 5 -11 4
-6 -3 5 -8 1 -10 -10 -5 -14 5 -13 8 7 20 13 8 16 12 7 9 -21 -6 -23 5 -6 22
9 9 9 15 0 24 -9 9 -9 15 1 27 9 12 9 13 0 7 -17 -10 -16 -1 3 32 9 15 10 20
2 11 -12 -15 -15 -15 -25 8 -11 22 -10 23 4 11 14 -11 15 -11 6 7 -6 11 -7 29
-2 40 11 28 11 37 -1 30 -13 -8 -13 1 0 26 9 15 7 19 -5 19 -10 0 -13 -5 -9
-12 4 -7 3 -8 -5 -4 -6 4 -9 11 -6 16 3 5 -2 13 -11 18 -13 7 -12 11 11 26 15
10 34 15 42 12 12 -5 13 -4 5 7 -7 8 -9 17 -5 21 10 10 13 37 3 31 -4 -3 -10
5 -13 17 -5 18 -8 19 -22 8 -13 -11 -14 -10 -9 5 6 14 4 16 -6 10 -10 -6 -12
-3 -8 13 4 12 2 20 -3 16 -5 -3 -9 0 -9 5 0 6 -7 11 -16 11 -10 0 -14 6 -10
15 6 17 -5 20 -20 5 -6 -6 -10 -3 -10 9 0 11 3 18 7 15 6 -3 6 4 0 35 -1 2 -9
-3 -18 -10 -10 -7 -15 -10 -11 -5 4 4 -2 17 -12 29 -11 11 -18 23 -15 26 3 2
12 -4 21 -15 15 -19 15 -19 5 1 -5 12 -21 27 -35 34 -14 8 -22 19 -18 25 10
17 11 37 1 30 -5 -3 -6 -10 -3 -16 4 -7 2 -8 -4 -4 -7 4 -12 2 -12 -5 0 -7 -3
-9 -6 -6 -4 4 1 18 11 33 9 15 11 23 4 19 -9 -6 -11 -3 -6 8 3 10 2 17 -2 17
-11 0 -9 19 3 39 5 8 5 12 0 9 -5 -3 -16 1 -24 10 -13 14 -12 15 3 9 9 -3 17
-2 17 3 0 6 -5 10 -11 10 -8 0 -8 5 1 15 7 8 9 15 4 15 -5 0 -3 4 4 9 11 7 10
9 -3 14 -10 5 -14 3 -9 -5 4 -7 3 -8 -4 -4 -9 5 -8 12 1 28 9 16 9 22 0 25
-20 7 -15 23 5 17 10 -4 13 -3 6 3 -6 4 -17 19 -24 33 -12 22 -11 23 1 13 12
-10 15 -8 15 7 0 10 -3 17 -7 14 -4 -2 -10 3 -13 12 -3 8 -2 12 4 9 6 -4 7 1
3 11 -5 13 -3 15 8 9 11 -7 12 -6 2 6 -9 12 -10 18 -1 27 8 8 5 9 -10 5 -15
-3 -20 -1 -18 11 1 8 5 19 9 22 13 13 7 27 -6 15 -11 -8 -13 -6 -12 9 1 11 5
23 10 27 4 5 5 2 0 -6 -5 -9 -4 -12 3 -7 17 10 15 26 -3 26 -8 0 -15 5 -15 11
0 5 4 7 10 4 6 -3 7 1 4 9 -3 9 -10 16 -16 16 -5 0 -6 5 -3 10 4 6 12 8 18 4
7 -3 3 2 -7 10 -11 9 -16 16 -10 16 5 0 10 14 10 30 1 17 -2 30 -7 30 -5 0 -9
-6 -9 -14 0 -8 -4 -18 -10 -21 -6 -4 -6 3 0 21 7 19 7 30 -1 40 -14 17 2 18
21 2 12 -11 12 -10 0 7 -8 11 -15 21 -16 23 0 1 -7 -6 -15 -15z m6 -22 c3 -5
2 -12 -3 -15 -5 -3 -9 1 -9 9 0 17 3 19 12 6z m50 -280 c3 -5 2 -12 -3 -15 -5
-3 -9 1 -9 9 0 17 3 19 12 6z m4 -708 c14 11 14 10 2 -5 -8 -11 -9 -18 -3 -18
6 0 14 5 17 10 8 13 35 -6 35 -24 0 -6 -4 -5 -9 3 -6 9 -11 10 -15 3 -4 -6
-14 -8 -23 -5 -12 5 -14 3 -8 -8 6 -11 5 -12 -6 -1 -16 15 -33 16 -23 1 4 -7
-1 -7 -16 1 -17 9 -24 9 -30 0 -5 -8 -9 -7 -14 5 -3 9 -10 14 -15 10 -5 -3
-12 -1 -15 4 -4 5 2 8 11 6 10 -1 24 2 31 8 7 5 15 7 19 3 3 -3 0 -6 -8 -6
-11 0 -11 -2 1 -10 18 -12 30 -13 29 -2 -4 25 2 35 13 24 9 -9 15 -9 27 1z
m-203 -23 c0 -13 -4 -16 -10 -10 -14 14 -29 13 -20 -2 4 -7 3 -8 -4 -4 -19 11
-14 24 11 29 12 2 22 5 22 6 1 0 1 -8 1 -19z m332 6 c-10 -7 -14 -17 -10 -21
4 -5 1 -5 -7 0 -12 7 -11 10 4 22 24 17 36 17 13 -1z m41 -19 c0 -9 -2 -8 -6
1 -2 6 -10 9 -15 6 -7 -4 -8 -2 -4 5 9 13 26 5 25 -12z m-216 -124 c11 -10 17
-13 14 -6 -4 6 -3 14 3 18 9 6 14 -8 11 -28 -1 -5 9 -5 21 -1 20 6 21 5 9 -10
-10 -12 -11 -19 -2 -30 9 -11 9 -16 0 -22 -8 -5 -9 -3 -4 6 5 9 4 11 -4 6 -8
-6 -9 -12 -2 -20 6 -7 8 -15 5 -19 -10 -10 -11 -68 -1 -74 5 -3 4 -9 -2 -13
-7 -3 -9 -14 -5 -23 3 -9 10 -14 15 -11 5 3 6 -2 3 -10 -3 -9 -10 -13 -15 -10
-5 3 -6 -2 -3 -10 3 -9 11 -16 18 -16 6 0 5 -4 -3 -9 -12 -8 -12 -12 -2 -24 9
-12 9 -17 0 -23 -8 -5 -9 -3 -4 6 6 9 4 11 -4 6 -9 -6 -8 -12 4 -26 12 -14 13
-20 4 -26 -8 -4 -10 -3 -5 4 4 7 2 12 -3 12 -16 0 -13 -16 4 -30 11 -9 12 -16
4 -26 -6 -7 -7 -19 -3 -25 4 -7 3 -9 -3 -6 -6 4 -14 -1 -18 -11 -6 -16 -7 -16
-21 2 -8 11 -14 15 -14 8 0 -6 -7 -9 -17 -5 -12 5 -14 3 -8 -8 8 -12 6 -12 -8
0 -9 7 -17 23 -17 35 0 12 -6 28 -12 35 -11 11 -10 12 1 6 11 -6 13 -4 8 8 -3
10 -2 17 4 17 6 0 7 6 3 12 -13 21 -11 48 3 48 7 0 13 5 13 11 0 5 -4 7 -10 4
-5 -3 -10 -1 -10 5 0 6 -5 8 -12 4 -7 -4 -8 -3 -4 5 4 6 11 9 15 7 4 -3 7 13
6 35 -1 22 2 42 7 45 5 3 5 11 -1 17 -5 7 -8 27 -7 45 1 18 -1 35 -6 38 -5 3
-4 13 1 22 5 9 6 23 1 32 -6 12 -3 16 11 17 12 1 17 -3 13 -10 -5 -8 -2 -7 7
1 12 11 12 14 -1 22 -8 5 -11 10 -6 10 5 0 18 -8 29 -17z m-203 -13 c-24 -15
-36 -11 -14 4 10 8 21 12 24 10 2 -3 -2 -9 -10 -14z m36 4 c-5 -12 -2 -15 11
-10 10 4 14 4 10 0 -4 -4 -1 -14 6 -22 10 -13 9 -15 -3 -10 -14 5 -15 -2 -10
-48 3 -29 2 -60 -2 -69 -6 -10 -5 -14 4 -11 7 1 10 1 5 -1 -4 -3 -5 -9 -2 -14
4 -5 -1 -6 -9 -3 -9 3 -16 1 -16 -6 0 -6 4 -9 8 -6 4 2 14 1 22 -5 11 -6 11
-9 2 -9 -14 0 -12 -36 2 -59 7 -10 6 -12 -4 -6 -10 6 -12 3 -8 -13 3 -12 0
-29 -7 -38 -10 -14 -9 -23 3 -47 12 -25 12 -31 1 -38 -8 -5 -10 -9 -5 -9 5 0
3 -7 -4 -15 -7 -8 -18 -15 -24 -15 -7 0 -6 4 2 9 11 7 11 9 -2 14 -8 3 -17 1
-20 -6 -2 -7 -5 -3 -6 8 -1 11 -3 32 -4 47 -2 17 1 25 8 22 6 -3 2 2 -8 10
-12 10 -15 16 -7 16 7 0 11 6 8 13 -2 6 0 22 4 34 5 13 4 25 -2 29 -6 3 -3 11
7 18 13 10 14 15 4 21 -9 5 -11 4 -6 -3 5 -8 2 -10 -8 -6 -14 5 -14 8 -1 21
16 15 21 38 7 29 -4 -2 -7 14 -7 37 1 23 -4 45 -9 49 -7 5 -7 8 1 8 7 0 10 7
7 15 -4 8 -1 15 6 15 6 0 8 5 5 10 -4 6 -12 7 -18 4 -7 -4 4 7 23 24 41 36 44
38 36 16z m349 -4 l-7 25 21 -24 c12 -14 17 -27 12 -31 -6 -3 -6 -11 -1 -20
13 -20 12 -33 -1 -24 -7 4 -7 -1 1 -16 11 -20 10 -22 -4 -17 -14 6 -14 3 1
-20 16 -24 16 -26 1 -21 -18 7 -18 -6 -1 -37 9 -15 8 -22 -4 -31 -13 -9 -13
-13 -3 -19 9 -5 11 -4 6 3 -4 7 -3 12 3 12 7 0 8 -13 4 -32 -10 -48 -5 -108 9
-108 5 0 6 -5 3 -10 -5 -8 -11 -7 -20 0 -12 10 -12 7 -2 -13 6 -14 16 -23 21
-20 5 4 6 1 2 -6 -6 -9 -11 -9 -21 -1 -9 8 -12 5 -10 -12 2 -18 -2 -23 -20
-23 -19 0 -21 3 -12 14 10 12 9 14 -4 9 -12 -5 -15 1 -14 26 1 18 5 38 9 44 4
7 2 12 -3 12 -6 0 -11 -5 -11 -12 0 -6 -3 -9 -6 -6 -3 4 -1 15 5 26 7 13 7 23
-2 32 -8 8 -8 11 -1 7 7 -4 12 3 12 21 2 67 5 81 16 75 7 -4 6 -1 -1 8 -7 9
-14 24 -16 35 -1 10 -6 24 -10 31 -4 6 -2 15 4 19 8 4 9 3 5 -4 -4 -7 -3 -12
2 -12 6 0 13 7 16 16 3 8 2 13 -3 10 -5 -3 -14 1 -20 8 -9 11 -9 16 0 22 8 4
9 3 5 -4 -4 -7 -2 -12 4 -12 8 0 9 7 5 18 -12 31 -14 51 -4 57 5 4 7 12 3 18
-3 7 4 1 17 -13 l22 -25 -8 25z m105 -111 c0 -14 -17 -10 -23 5 -4 10 -1 13 9
9 7 -3 14 -9 14 -14z m-220 1 c0 -5 -5 -10 -11 -10 -5 0 -7 5 -4 10 3 6 8 10
11 10 2 0 4 -4 4 -10z m-110 -44 c0 -3 -4 -8 -10 -11 -5 -3 -10 -1 -10 4 0 6
5 11 10 11 6 0 10 -2 10 -4z m267 -12 c-3 -3 -12 -4 -19 -1 -8 3 -5 6 6 6 11
1 17 -2 13 -5z m-82 -13 c3 -5 2 -12 -3 -15 -5 -3 -9 1 -9 9 0 17 3 19 12 6z
m-198 -16 c0 -8 -4 -12 -9 -9 -5 3 -6 10 -3 15 9 13 12 11 12 -6z m278 -104
c3 -5 2 -12 -3 -15 -5 -3 -9 1 -9 9 0 17 3 19 12 6z m-361 -36 c-4 -8 -11 -15
-16 -15 -6 0 -5 6 2 15 7 8 14 15 16 15 2 0 1 -7 -2 -15z m-30 -351 c-19 -28
-26 -31 -17 -6 6 15 5 15 -10 3 -10 -8 -17 -9 -17 -3 0 6 -6 12 -12 15 -7 2
-2 2 10 0 17 -3 22 0 16 9 -6 10 -3 9 9 -1 16 -12 22 -8 18 12 -1 5 3 6 9 2 6
-4 4 -15 -6 -31z m71 27 c-3 -5 -1 -12 5 -16 5 -3 10 0 10 7 0 10 2 10 8 1 7
-11 16 -12 57 -3 6 1 12 2 15 0 3 -1 16 -4 30 -6 34 -6 56 -29 39 -39 -8 -6
-10 -4 -4 5 6 10 4 12 -9 7 -11 -4 -15 -3 -11 4 10 16 -28 6 -43 -11 -11 -13
-12 -13 -10 0 2 8 7 18 12 21 4 4 3 9 -2 13 -6 3 -14 -3 -17 -15 -5 -16 -9
-18 -15 -9 -9 15 -50 21 -50 8 0 -4 -8 -8 -18 -8 -10 0 -24 -6 -31 -12 -11
-11 -11 -9 0 9 8 13 19 19 28 15 13 -5 14 -3 4 10 -7 8 -10 18 -6 21 9 10 15
8 8 -2z m190 -11 c0 -8 52 -5 57 4 6 8 8 8 8 -1 0 -6 10 -9 23 -7 20 4 20 4
-3 -7 -14 -7 -29 -11 -34 -10 -4 1 -16 -4 -25 -11 -14 -12 -15 -11 -2 5 8 10
9 17 3 17 -6 0 -15 -6 -19 -14 -6 -11 -12 -9 -25 9 -17 22 -17 23 0 20 9 -2
17 -4 17 -5z m-244 -33 l-23 -22 17 28 c10 15 20 25 23 22 3 -3 -5 -16 -17
-28z m426 13 c3 -10 2 -11 -4 -4 -4 6 -15 14 -23 17 -11 5 -9 6 4 4 11 -1 21
-9 23 -17z m-521 -8 c1 -7 0 -8 -3 -2 -2 5 -9 8 -14 4 -5 -3 -9 0 -9 6 0 15
23 7 26 -8z m474 8 c0 -5 -4 -10 -10 -10 -5 0 -10 5 -10 10 0 6 5 10 10 10 6
0 10 -4 10 -10z m-33 -16 c-3 -3 -12 -4 -19 -1 -8 3 -5 6 6 6 11 1 17 -2 13
-5z m63 -4 c0 -5 -2 -10 -4 -10 -3 0 -8 5 -11 10 -3 6 -1 10 4 10 6 0 11 -4
11 -10z m-413 -172 c-3 -8 -6 -5 -6 6 -1 11 2 17 5 13 3 -3 4 -12 1 -19z m57
-6 c18 -3 19 -2 5 15 -13 17 -13 17 4 4 18 -14 18 -16 1 -28 -12 -9 -21 -10
-30 -2 -9 7 -15 5 -23 -8 -6 -10 -11 -13 -11 -6 0 6 5 15 11 18 6 4 8 14 5 24
-5 14 -4 14 6 1 7 -8 22 -17 32 -18z m66 18 c0 -5 -5 -10 -11 -10 -5 0 -7 5
-4 10 3 6 8 10 11 10 2 0 4 -4 4 -10z m55 -8 c-3 -3 -11 0 -18 7 -9 10 -8 11
6 5 10 -3 15 -9 12 -12z m61 0 c-8 -13 -46 -22 -46 -11 0 5 9 9 20 9 11 0 20
5 20 12 0 6 3 9 6 5 3 -3 3 -10 0 -15z m64 -7 c5 3 14 -5 20 -17 9 -20 9 -21
-2 -7 -7 9 -17 16 -23 17 -5 1 -10 7 -11 14 -1 10 0 10 3 0 3 -7 8 -10 13 -7z
m72 10 c5 -6 8 -4 8 4 0 11 4 10 16 -5 8 -10 13 -14 10 -8 -2 5 5 10 18 10 18
0 22 -5 18 -22 -3 -15 -9 -21 -18 -17 -9 3 -14 0 -12 -8 2 -8 -2 -13 -9 -12
-7 2 -10 -4 -6 -13 6 -17 29 -13 26 5 -5 20 15 12 20 -9 3 -13 10 -18 21 -14
9 3 16 1 16 -6 0 -6 -3 -9 -7 -7 -5 3 -14 -2 -22 -10 -12 -13 -11 -14 5 -9 10
3 26 1 34 -5 13 -9 13 -10 -2 -6 -9 3 -22 -2 -30 -11 -12 -15 -11 -16 5 -3 10
8 17 9 17 3 0 -6 7 -9 15 -6 8 4 17 -1 21 -10 3 -9 11 -13 18 -9 6 3 7 2 3 -2
-4 -5 3 -15 15 -23 13 -7 15 -11 6 -8 -10 3 -20 0 -24 -6 -4 -7 -3 -8 4 -4 7
4 19 -5 29 -21 12 -19 25 -28 38 -25 16 2 17 1 5 -7 -13 -9 -12 -11 5 -12 19
0 19 -1 1 -8 -19 -7 -19 -8 0 -16 10 -4 22 -8 25 -7 4 1 5 -8 2 -18 -4 -14 0
-20 11 -20 14 0 15 -3 5 -22 -11 -22 -11 -22 6 -8 17 14 18 13 13 -16 -3 -20
0 -31 9 -31 6 0 9 5 6 11 -4 6 1 5 10 -3 14 -11 15 -16 5 -29 -11 -13 -10 -14
11 -7 18 6 22 4 15 -6 -12 -19 -14 -40 -4 -34 13 8 39 -35 33 -53 -5 -11 -2
-13 8 -8 8 4 5 0 -5 -8 -11 -9 -15 -16 -9 -16 22 0 6 -33 -18 -37 -23 -4 -23
-3 -4 12 11 9 14 13 6 9 -10 -5 -13 -3 -8 9 3 9 -1 21 -11 29 -15 12 -16 11
-4 -4 9 -11 10 -18 2 -23 -6 -4 -10 -3 -9 2 1 4 1 10 -1 13 -1 3 -3 15 -6 28
-5 28 -28 54 -39 44 -5 -4 -5 -1 -1 6 6 9 11 10 20 3 9 -8 13 -7 13 4 0 7 -3
14 -6 13 -19 -2 -31 3 -27 11 3 5 -6 12 -21 16 -21 5 -24 8 -12 16 12 8 11 11
-3 19 -10 7 -15 17 -11 27 4 11 3 14 -5 9 -7 -4 -12 -1 -12 8 0 8 3 16 8 19 4
2 1 2 -6 0 -23 -5 -34 7 -21 23 7 9 8 14 3 13 -24 -4 -32 2 -26 23 3 14 2 19
-6 14 -7 -4 -12 -1 -12 8 0 9 -4 16 -10 16 -5 0 -10 7 -10 15 0 8 -3 14 -7 14
-22 -4 -25 3 -7 16 18 14 17 14 -9 5 -16 -5 -26 -6 -23 -1 3 4 -3 16 -14 26
-11 10 -17 21 -15 26 3 4 1 11 -5 14 -6 4 -8 15 -5 26 4 11 2 19 -5 19 -6 0
-9 -4 -6 -8 2 -4 0 -14 -5 -22 -9 -13 -10 -13 -7 0 3 8 -8 26 -23 41 -19 19
-24 29 -16 33 7 4 2 4 -11 2 -19 -4 -21 -2 -11 10 10 12 9 17 -1 27 -9 9 -11
9 -6 0 3 -6 1 -15 -5 -19 -8 -4 -9 -3 -5 4 4 7 1 12 -6 12 -10 0 -9 3 2 9 17
11 32 10 42 -4z m120 3 c-7 -7 -12 -16 -12 -22 0 -6 5 -5 12 2 7 7 17 12 23
12 9 -1 -24 -24 -35 -25 -3 0 -10 -3 -16 -7 -6 -4 -11 -1 -11 7 0 8 5 11 10 8
6 -4 8 1 4 11 -4 9 -3 14 2 11 5 -3 12 -1 16 5 3 5 9 10 13 10 3 0 1 -5 -6
-12z m-241 -25 c-12 -20 -14 -14 -5 12 4 9 9 14 11 11 3 -2 0 -13 -6 -23z
m-96 7 c4 -6 11 -8 16 -5 5 4 9 1 9 -4 0 -14 -6 -14 -31 -1 -14 8 -19 7 -19
-1 0 -7 -3 -10 -6 -6 -7 7 4 27 16 27 5 0 12 -5 15 -10z m-55 -10 c0 -5 -5
-10 -11 -10 -5 0 -7 5 -4 10 3 6 8 10 11 10 2 0 4 -4 4 -10z m570 -27 c0 -7
-39 17 -46 28 -3 6 5 3 20 -6 14 -10 26 -19 26 -22z m-795 16 c-7 -11 -35 -12
-35 -1 0 4 9 8 20 9 11 1 18 -2 15 -8z m85 -3 c0 -2 -7 -7 -16 -10 -8 -3 -12
-2 -9 4 6 10 25 14 25 6z m-174 -145 c-5 -13 -3 -13 8 2 11 14 16 15 22 6 4
-8 2 -15 -5 -17 -11 -4 -11 -6 0 -14 10 -7 8 -8 -8 -5 -13 3 -23 1 -23 -4 0
-5 5 -9 10 -9 6 0 0 -12 -14 -27 -14 -15 -22 -31 -18 -37 3 -6 -7 -2 -23 8
l-30 19 18 -20 c20 -23 14 -31 -20 -28 -12 1 -20 -2 -17 -7 4 -5 12 -7 19 -4
9 3 13 -2 12 -13 -1 -12 -6 -17 -16 -13 -10 4 -13 1 -8 -12 5 -11 3 -15 -5
-10 -8 5 -9 2 -5 -10 4 -9 3 -15 -2 -12 -5 3 -11 -4 -14 -15 -4 -14 -11 -20
-21 -16 -12 5 -13 2 -6 -18 5 -14 6 -24 2 -24 -20 3 -32 -2 -27 -11 4 -6 1
-17 -5 -25 -6 -8 -8 -20 -4 -26 5 -8 2 -10 -8 -6 -22 8 -29 -2 -17 -24 8 -15
6 -17 -7 -12 -13 5 -15 3 -8 -8 14 -23 13 -39 -2 -39 -8 0 -17 -7 -20 -15 -5
-13 -9 -13 -23 -3 -14 12 -15 11 -2 -5 14 -18 16 -18 28 -1 7 10 13 14 13 10
0 -4 -9 -20 -20 -36 -11 -15 -16 -30 -13 -34 15 -15 10 -39 -8 -43 -10 -3 -19
-10 -19 -15 0 -5 4 -7 9 -3 5 3 13 0 17 -6 5 -8 3 -9 -6 -4 -10 6 -12 4 -7 -9
5 -11 3 -15 -5 -10 -7 5 -9 -1 -6 -19 4 -20 2 -24 -11 -19 -14 5 -14 3 -2 -11
11 -14 11 -17 0 -17 -9 0 -10 -3 -3 -8 12 -8 12 -60 0 -80 -4 -7 -4 -18 1 -24
15 -25 12 -38 -7 -28 -9 5 -20 7 -23 4 -3 -3 -8 0 -13 7 -4 7 -3 10 3 6 6 -4
13 0 16 8 4 9 1 12 -8 9 -9 -4 -13 1 -12 15 1 12 7 21 14 21 7 0 13 4 13 10 0
5 -7 7 -15 4 -17 -7 -21 11 -5 21 6 3 10 12 10 18 0 7 -4 6 -10 -3 -5 -8 -10
-10 -10 -4 0 5 5 15 12 22 9 9 9 12 -1 12 -11 0 -11 3 0 17 8 9 9 14 4 11 -6
-4 -12 3 -12 15 -2 15 0 18 6 8 7 -10 13 -11 30 -2 24 13 25 17 9 27 -6 4 -8
3 -5 -3 4 -6 1 -13 -7 -16 -8 -3 -17 1 -20 9 -4 10 -2 12 6 8 8 -5 9 0 5 15
-5 19 -3 20 10 9 15 -12 15 -10 3 12 -12 22 -11 24 2 13 12 -10 15 -10 15 2 0
8 -4 15 -9 15 -10 0 -6 39 5 58 5 6 5 17 1 24 -5 7 -3 8 6 3 10 -6 12 -4 7 9
-4 10 -1 19 8 22 8 3 11 12 8 21 -4 10 -2 14 4 10 6 -4 13 6 17 24 3 17 10 28
15 24 5 -3 13 0 17 6 4 8 3 9 -4 5 -7 -4 -12 -5 -12 -2 0 2 -3 12 -7 22 -3 9
-2 15 3 12 12 -7 46 30 34 37 -6 4 -10 1 -10 -4 0 -6 -5 -11 -12 -11 -9 0 -9
3 1 13 6 6 17 12 23 12 6 0 13 6 16 14 3 8 0 11 -7 7 -19 -12 -12 0 11 20 22
19 23 19 8 -1 -11 -16 -11 -18 0 -8 13 12 20 30 22 61 1 8 8 7 21 -5 20 -18
20 -18 1 12 -10 16 -14 26 -8 22 15 -9 47 39 37 56 -4 7 0 7 10 -2 15 -12 17
-12 10 4 -5 15 -3 17 11 12 11 -5 15 -3 10 5 -5 8 -1 9 12 4 10 -4 15 -4 11 0
-4 4 -1 14 6 23 11 14 10 14 -6 2 -15 -12 -17 -12 -11 3 3 9 13 16 21 16 8 0
11 5 7 12 -5 7 -3 8 5 4 7 -5 10 -15 7 -25z m809 -51 c3 -5 1 -10 -4 -10 -6 0
-11 5 -11 10 0 6 2 10 4 10 3 0 8 -4 11 -10z m408 -195 c-3 -9 -8 -14 -10 -11
-3 3 -2 9 2 15 9 16 15 13 8 -4z m-1402 -122 c13 -16 12 -17 -3 -4 -17 13 -22
21 -14 21 2 0 10 -8 17 -17z m1189 -22 c0 -6 -4 -12 -8 -15 -5 -3 -9 1 -9 9 0
8 4 15 9 15 4 0 8 -4 8 -9z m10 -57 c0 -8 0 -17 -1 -20 0 -4 5 -11 13 -16 9
-7 7 -8 -7 -4 -20 6 -20 6 -1 -9 15 -11 16 -15 5 -16 -10 0 -10 -2 -1 -6 16
-6 15 -25 -4 -49 -15 -19 -16 -19 -9 1 5 16 4 17 -6 8 -9 -9 -9 -17 4 -36 11
-17 12 -24 3 -24 -13 0 -16 12 -17 54 -1 13 -6 20 -11 17 -6 -4 -5 3 1 15 9
16 9 21 -1 22 -10 0 -10 2 0 6 6 2 12 9 12 14 0 6 -5 7 -12 3 -7 -5 -9 0 -6
14 5 16 2 20 -13 17 -11 -2 -19 1 -19 7 0 5 6 8 14 5 8 -3 17 1 20 8 6 18 36
8 36 -11z m-655 -5 c-4 -6 -1 -9 7 -7 7 2 14 -1 15 -7 0 -5 -3 -9 -8 -8 -4 2
-6 -4 -3 -12 4 -8 11 -12 18 -8 6 4 4 -2 -4 -12 -12 -15 -12 -17 -1 -10 11 6
13 2 9 -18 -3 -16 -1 -25 6 -24 6 1 10 -8 10 -20 -1 -13 3 -20 7 -17 5 3 9 0
9 -6 0 -6 4 -9 8 -6 5 3 8 -5 7 -17 -1 -12 3 -28 9 -36 8 -11 8 -13 -1 -7 -17
10 -16 -2 1 -20 8 -7 12 -22 9 -32 -3 -11 1 -22 10 -25 9 -3 13 -16 12 -31 -2
-14 1 -26 6 -26 6 0 7 -4 4 -10 -3 -5 1 -10 10 -10 9 0 13 -5 10 -10 -4 -6
-11 -8 -16 -5 -5 3 -6 -1 -3 -9 3 -9 11 -16 18 -16 6 0 4 -5 -4 -10 -13 -8
-12 -10 3 -10 17 0 17 -1 3 -16 -21 -20 -21 -30 0 -13 15 12 16 11 10 -9 -5
-16 -3 -22 7 -22 8 0 21 -8 28 -17 13 -16 12 -17 -4 -4 -9 8 -20 11 -24 7 -3
-3 -1 -6 6 -6 7 0 10 -4 7 -8 -2 -4 7 -9 20 -10 18 -1 23 2 18 11 -5 8 -2 7 9
-2 14 -11 17 -11 17 0 0 11 2 11 10 -1 5 -9 5 -19 -2 -27 -8 -11 -7 -12 6 -7
10 4 15 13 12 20 -7 18 6 25 24 14 9 -5 19 -5 27 2 9 7 13 7 13 -2 0 -10 4 -9
18 1 9 7 14 9 10 5 -5 -5 1 -15 12 -23 24 -17 26 -30 5 -30 -8 0 -12 4 -9 9 3
4 3 8 0 8 -2 0 -11 3 -20 6 -9 3 -16 1 -16 -6 0 -6 5 -8 12 -4 6 4 8 3 5 -4
-4 -5 -15 -9 -25 -7 -9 2 -21 4 -26 4 -6 1 -2 7 8 14 16 12 16 14 3 14 -19 0
-30 -24 -20 -40 4 -7 -1 -6 -10 2 -10 8 -20 11 -24 8 -3 -4 -13 -1 -21 6 -13
10 -15 9 -9 -7 6 -16 5 -17 -8 -6 -14 11 -14 10 -5 -14 6 -17 6 -25 0 -21 -6
3 -7 -1 -4 -9 3 -9 9 -14 13 -12 4 3 7 -4 7 -14 0 -15 -3 -17 -16 -7 -12 10
-12 8 1 -8 9 -11 20 -27 24 -35 7 -12 6 -13 -6 -3 -13 10 -16 10 -16 -2 0 -8
3 -12 7 -10 11 7 51 -26 44 -36 -3 -5 -10 -7 -15 -4 -5 3 -6 -1 -3 -9 3 -9 9
-14 13 -12 9 6 7 -57 -3 -72 -4 -7 -2 -12 5 -12 7 0 9 -3 6 -6 -4 -4 -18 1
-31 10 -24 15 -25 15 -19 -1 5 -12 3 -14 -7 -8 -19 12 -70 14 -70 3 0 -5 -5
-6 -10 -3 -6 4 -8 10 -5 15 7 11 -22 7 -32 -5 -4 -4 -2 -5 5 -1 6 4 12 3 12
-3 0 -5 -13 -8 -30 -6 -18 2 -30 -1 -30 -8 0 -7 -5 -4 -11 6 -5 9 -15 17 -20
17 -6 0 -7 -4 -4 -10 3 -6 -1 -7 -9 -4 -9 3 -16 10 -16 15 0 5 -4 9 -10 9 -5
0 -6 -7 -3 -17 4 -10 2 -14 -4 -10 -6 4 -13 4 -16 0 -2 -5 -2 -3 -1 4 2 7 -1
15 -7 18 -5 4 -8 3 -7 -2 2 -4 -2 -8 -7 -8 -5 0 -9 4 -7 10 1 5 -4 2 -11 -7
-15 -19 -33 -25 -22 -8 4 6 -1 7 -11 3 -10 -4 -15 -2 -11 4 3 5 0 10 -7 10 -8
0 -12 -7 -8 -15 4 -11 2 -13 -9 -6 -19 12 -40 14 -34 4 3 -5 0 -12 -6 -16 -8
-4 -9 -3 -5 4 4 7 2 12 -5 12 -8 0 -7 5 2 18 12 15 12 16 -2 5 -9 -7 -20 -9
-24 -5 -5 4 -5 1 -1 -5 4 -8 2 -13 -7 -13 -7 0 -20 12 -27 26 -12 21 -12 29
-1 46 7 11 8 17 2 13 -6 -3 -11 -1 -11 4 0 6 4 11 10 11 5 0 6 7 3 17 -5 12
-3 14 7 8 10 -6 12 -2 8 17 -4 21 -2 25 16 21 17 -4 18 -3 6 6 -13 10 -13 12
0 21 11 7 12 10 2 10 -10 0 -10 4 2 15 8 9 13 22 9 31 -3 8 3 24 13 36 11 12
13 18 7 14 -8 -4 -13 -2 -14 6 0 9 -2 9 -5 1 -3 -6 -16 -9 -30 -7 -18 3 -23 1
-19 -7 4 -6 -4 -4 -18 5 -20 14 -27 15 -39 4 -21 -20 -35 -19 -41 2 -3 11 2
25 11 32 9 7 13 8 9 2 -4 -7 7 -11 36 -10 23 1 48 -3 56 -9 12 -8 13 -6 7 10
-6 16 -5 18 5 8 7 -7 17 -13 22 -13 4 0 5 6 1 13 -6 9 -4 9 7 1 10 -8 18 -6
32 8 19 20 8 25 -12 6 -10 -11 -11 -10 -6 4 4 9 13 19 21 22 8 3 14 11 14 17
0 8 -5 7 -17 -2 -15 -13 -15 -12 -3 8 8 12 17 20 21 17 4 -2 10 0 14 6 3 5 1
10 -6 10 -8 0 -6 6 4 18 10 10 14 22 10 26 -9 9 -13 37 -4 32 4 -3 12 4 19 14
10 16 9 18 -6 14 -9 -3 -6 2 8 10 16 10 19 15 10 16 -13 0 -13 1 0 10 11 7 11
10 2 10 -7 0 -10 5 -7 10 4 6 12 7 18 3 7 -4 6 1 -2 11 -11 13 -11 16 -1 14 7
-2 15 3 18 11 2 8 0 11 -5 8 -5 -3 -10 0 -10 8 0 8 9 18 20 21 16 5 17 8 6 15
-12 8 -11 11 4 20 14 8 15 14 6 31 -7 13 -7 18 -1 14 6 -3 13 -2 17 4 3 5 2
10 -3 10 -5 0 -9 7 -9 15 0 12 3 12 16 3 9 -7 13 -8 9 -4 -4 5 -2 16 5 24 9
13 9 14 0 8 -7 -4 -13 -2 -13 3 0 6 5 11 11 11 6 0 9 6 6 14 -3 8 -3 17 0 20
10 10 15 7 8 -5z m-1920 -79 c3 -6 -1 -7 -9 -4 -18 7 -21 14 -7 14 6 0 13 -4
16 -10z m3366 -7 c13 -16 12 -17 -3 -4 -10 7 -18 15 -18 17 0 8 8 3 21 -13z
m-2571 -3 c0 -5 -5 -10 -11 -10 -5 0 -7 5 -4 10 3 6 8 10 11 10 2 0 4 -4 4
-10z m1200 -30 c0 -5 -5 -10 -11 -10 -5 0 -7 5 -4 10 3 6 8 10 11 10 2 0 4 -4
4 -10z m614 -26 c-5 -19 -2 -24 12 -24 17 0 16 -1 -2 -15 -19 -15 -19 -15 1
-9 16 6 18 4 8 -6 -7 -8 -24 -14 -38 -15 -24 -1 -25 0 -9 12 14 10 14 13 3 13
-12 0 -12 2 0 9 12 8 12 12 2 25 -11 13 -11 19 -1 31 17 21 31 9 24 -21z
m-1764 -194 c0 -5 -5 -10 -11 -10 -5 0 -7 5 -4 10 3 6 8 10 11 10 2 0 4 -4 4
-10z m331 -73 c-10 -9 -11 -8 -5 6 3 10 9 15 12 12 3 -3 0 -11 -7 -18z m1819
-12 c0 -2 -6 -8 -13 -14 -10 -8 -14 -7 -14 2 0 8 6 14 14 14 7 0 13 -1 13 -2z
m-260 -9 c0 -2 -7 -7 -16 -10 -8 -3 -12 -2 -9 4 6 10 25 14 25 6z m770 0 c0
-3 -4 -8 -10 -11 -5 -3 -10 -1 -10 4 0 6 5 11 10 11 6 0 10 -2 10 -4z m-2137
-49 c4 3 7 4 7 0 0 -18 -21 -14 -30 5 -10 21 -10 21 3 6 8 -10 17 -15 20 -11z
m-1296 -2 c0 -8 -4 -12 -9 -9 -5 3 -6 10 -3 15 9 13 12 11 12 -6z m2263 -42
c0 -7 5 -13 11 -13 5 0 7 5 4 10 -3 6 -1 10 4 10 6 0 14 0 19 0 4 0 7 -4 7 -9
0 -5 3 -13 8 -17 11 -12 8 -21 -8 -21 -8 0 -12 4 -9 9 3 4 0 8 -5 8 -6 0 -11
-4 -11 -8 0 -5 -7 -9 -15 -9 -8 0 -13 3 -10 5 3 3 -4 12 -15 19 -22 16 -20 30
5 30 8 0 15 -6 15 -14z m-696 -31 c3 -5 -1 -9 -9 -9 -8 0 -12 4 -9 9 3 4 7 8
9 8 2 0 6 -4 9 -8z m-524 -12 c0 -5 -5 -10 -11 -10 -5 0 -7 5 -4 10 3 6 8 10
11 10 2 0 4 -4 4 -10z m60 0 c0 -5 -5 -10 -11 -10 -5 0 -7 5 -4 10 3 6 8 10
11 10 2 0 4 -4 4 -10z m60 0 c0 -5 -5 -10 -11 -10 -5 0 -7 5 -4 10 3 6 8 10
11 10 2 0 4 -4 4 -10z m60 0 c0 -5 -5 -10 -11 -10 -5 0 -7 5 -4 10 3 6 8 10
11 10 2 0 4 -4 4 -10z m425 1 c-9 -8 -36 -10 -30 -2 2 4 11 8 20 8 8 0 13 -3
10 -6z m905 3 c0 -8 -19 -13 -24 -6 -3 5 1 9 9 9 8 0 15 -2 15 -3z m-1863
-158 c-3 -7 0 -20 6 -27 10 -11 9 -11 -5 0 -15 11 -15 41 -1 41 3 0 3 -6 0
-14z m2603 -70 c0 -3 -4 -8 -10 -11 -5 -3 -10 -1 -10 4 0 6 5 11 10 11 6 0 10
-2 10 -4z m-1705 -35 c3 -5 0 -13 -6 -17 -7 -4 -9 -3 -5 4 3 5 0 13 -6 15 -9
4 -10 6 -1 6 6 1 14 -3 18 -8z m-945 -166 c7 -9 8 -15 2 -15 -5 0 -12 7 -16
15 -3 8 -4 15 -2 15 2 0 9 -7 16 -15z m754 -353 c3 -5 -1 -9 -9 -9 -8 0 -12 4
-9 9 3 4 7 8 9 8 2 0 6 -4 9 -8z m436 -12 c0 -5 -2 -10 -4 -10 -3 0 -8 5 -11
10 -3 6 -1 10 4 10 6 0 11 -4 11 -10z m-1490 -80 c0 -5 -2 -10 -4 -10 -3 0 -8
5 -11 10 -3 6 -1 10 4 10 6 0 11 -4 11 -10z m1527 -9 c0 -11 -5 -18 -9 -15 -4
3 -5 11 -1 19 7 21 12 19 10 -4z m-1057 -6 c7 -8 9 -15 6 -15 -4 0 -14 7 -22
15 -9 8 -11 15 -6 15 5 0 15 -7 22 -15z m-418 -129 c7 4 8 2 4 -5 -9 -13 -26
-5 -25 12 0 9 2 8 6 -1 2 -6 10 -9 15 -6z m1038 -20 c0 -3 -4 -8 -10 -11 -5
-3 -10 -1 -10 4 0 6 5 11 10 11 6 0 10 -2 10 -4z m1520 -160 c0 -3 -4 -8 -10
-11 -5 -3 -10 -1 -10 4 0 6 5 11 10 11 6 0 10 -2 10 -4z m-67 -171 c-3 -8 -10
-15 -15 -15 -7 0 -6 5 1 13 6 8 7 18 3 22 -4 5 -2 5 5 1 7 -4 10 -13 6 -21z
m-2329 -111 c5 -14 4 -15 -9 -4 -17 14 -19 20 -6 20 5 0 12 -7 15 -16z m2231
-165 c-4 -5 -12 -9 -18 -8 -9 0 -8 2 1 6 6 2 9 10 6 15 -4 7 -2 8 5 4 6 -4 9
-12 6 -17z m-2001 -495 c5 -14 4 -15 -9 -4 -17 14 -19 20 -6 20 5 0 12 -7 15
-16z m166 -268 c0 -3 -4 -8 -10 -11 -5 -3 -10 -1 -10 4 0 6 5 11 10 11 6 0 10
-2 10 -4z"/>
<path d="M4150 6066 c0 -2 7 -7 16 -10 8 -3 12 -2 9 4 -6 10 -25 14 -25 6z"/>
<path d="M4180 5519 c0 -5 5 -7 10 -4 6 3 10 8 10 11 0 2 -4 4 -10 4 -5 0 -10
-5 -10 -11z"/>
<path d="M3930 5800 c0 -5 5 -10 11 -10 5 0 7 5 4 10 -3 6 -8 10 -11 10 -2 0
-4 -4 -4 -10z"/>
<path d="M3966 5680 c6 -8 10 -23 8 -33 -1 -11 0 -16 4 -13 12 13 10 36 -6 48
-15 11 -15 11 -6 -2z"/>
<path d="M3965 5600 c-3 -6 1 -7 9 -4 18 7 21 14 7 14 -6 0 -13 -4 -16 -10z"/>
<path d="M3936 5582 c-3 -5 1 -9 9 -9 8 0 12 4 9 9 -3 4 -7 8 -9 8 -2 0 -6 -4
-9 -8z"/>
<path d="M3950 5506 c0 -2 8 -10 18 -17 15 -13 16 -12 3 4 -13 16 -21 21 -21
13z"/>
<path d="M4290 5585 c0 -7 30 -13 34 -7 3 4 -4 9 -15 9 -10 1 -19 0 -19 -2z"/>
<path d="M4295 5520 c-3 -5 -1 -10 4 -10 6 0 11 5 11 10 0 6 -2 10 -4 10 -3 0
-8 -4 -11 -10z"/>
<path d="M4462 4864 c10 -10 20 -16 22 -13 3 3 -5 11 -17 18 -21 13 -21 12 -5
-5z"/>
<path d="M4600 4720 c0 -5 5 -10 11 -10 5 0 7 5 4 10 -3 6 -8 10 -11 10 -2 0
-4 -4 -4 -10z"/>
<path d="M4718 4523 c7 -3 16 -2 19 1 4 3 -2 6 -13 5 -11 0 -14 -3 -6 -6z"/>
<path d="M3739 4773 c-13 -16 -12 -17 4 -4 16 13 21 21 13 21 -2 0 -10 -8 -17
-17z"/>
<path d="M3506 4428 c3 -4 9 -8 15 -8 5 0 9 4 9 8 0 5 -7 9 -15 9 -8 0 -12 -4
-9 -9z"/>
<path d="M3490 4380 c0 -5 5 -10 11 -10 5 0 7 5 4 10 -3 6 -8 10 -11 10 -2 0
-4 -4 -4 -10z"/>
<path d="M3454 4094 c-18 -14 -18 -15 4 -4 12 6 22 13 22 15 0 8 -5 6 -26 -11z"/>
<path d="M4195 4211 c-3 -5 -2 -12 3 -15 5 -3 9 1 9 9 0 17 -3 19 -12 6z"/>
<path d="M4360 3676 c0 -2 9 -6 20 -9 11 -3 18 -1 14 4 -5 9 -34 13 -34 5z"/>
<path d="M4806 4263 c-6 -14 -5 -15 5 -6 7 7 10 15 7 18 -3 3 -9 -2 -12 -12z"/>
<path d="M4190 6840 c-9 -6 -10 -10 -3 -10 6 0 15 5 18 10 8 12 4 12 -15 0z"/>
<path d="M4260 6376 c7 -7 13 -7 20 0 6 6 3 10 -10 10 -13 0 -16 -4 -10 -10z"/>
<path d="M3894 6198 l-19 -23 23 19 c21 18 27 26 19 26 -2 0 -12 -10 -23 -22z"/>
<path d="M3856 6173 c-6 -14 -5 -15 5 -6 7 7 10 15 7 18 -3 3 -9 -2 -12 -12z"/>
<path d="M4395 6050 c3 -5 8 -10 11 -10 2 0 4 5 4 10 0 6 -5 10 -11 10 -5 0
-7 -4 -4 -10z"/>
<path d="M3830 5916 c0 -2 7 -7 16 -10 8 -3 12 -2 9 4 -6 10 -25 14 -25 6z"/>
<path d="M4459 5328 c-6 -18 -3 -46 3 -42 5 4 7 12 4 19 -3 8 0 16 7 19 9 3 9
5 0 5 -7 1 -13 0 -14 -1z"/>
<path d="M3675 5039 c-4 -6 -5 -12 -2 -15 2 -3 7 2 10 11 7 17 1 20 -8 4z"/>
<path d="M3907 5029 c7 -7 15 -10 18 -7 3 3 -2 9 -12 12 -14 6 -15 5 -6 -5z"/>
<path d="M4680 4981 c0 -6 4 -13 10 -16 6 -3 7 1 4 9 -7 18 -14 21 -14 7z"/>
<path d="M3821 4923 c-10 -24 -9 -26 2 -11 8 10 17 15 21 11 4 -4 4 0 0 10 -8
22 -9 22 -23 -10z"/>
<path d="M3485 4870 c-4 -6 -11 -7 -17 -4 -7 4 -8 2 -4 -5 6 -9 11 -9 22 0 14
11 18 19 10 19 -3 0 -8 -5 -11 -10z"/>
<path d="M3358 4729 c-12 -13 -14 -19 -5 -19 7 0 18 9 25 20 15 25 3 25 -20
-1z"/>
<path d="M3143 4375 c0 -8 4 -12 9 -9 5 3 6 10 3 15 -9 13 -12 11 -12 -6z"/>
<path d="M2625 4339 c-11 -16 -1 -19 13 -3 7 8 8 14 3 14 -5 0 -13 -5 -16 -11z"/>
<path d="M5846 4338 c3 -5 10 -6 15 -3 13 9 11 12 -6 12 -8 0 -12 -4 -9 -9z"/>
<path d="M2455 4330 c3 -5 8 -10 11 -10 2 0 4 5 4 10 0 6 -5 10 -11 10 -5 0
-7 -4 -4 -10z"/>
<path d="M5180 4261 c0 -10 19 -25 25 -20 1 2 -3 10 -11 17 -8 7 -14 8 -14 3z"/>
<path d="M3026 4251 c-4 -5 -2 -12 3 -15 5 -4 12 -2 15 3 4 5 2 12 -3 15 -5 4
-12 2 -15 -3z"/>
<path d="M2900 4216 c0 -2 7 -9 15 -16 9 -7 15 -8 15 -2 0 5 -7 12 -15 16 -8
3 -15 4 -15 2z"/>
<path d="M2852 4184 c-12 -8 -22 -21 -22 -27 0 -7 5 -4 11 6 6 9 14 15 20 12
5 -4 9 -1 9 5 0 6 5 8 12 4 7 -4 8 -3 4 4 -9 15 -7 15 -34 -4z"/>
<path d="M4838 3983 c7 -3 16 -2 19 1 4 3 -2 6 -13 5 -11 0 -14 -3 -6 -6z"/>
<path d="M3500 3960 c-9 -6 -10 -10 -3 -10 6 0 15 5 18 10 8 12 4 12 -15 0z"/>
<path d="M3111 3935 c0 -5 6 -19 14 -29 8 -11 15 -15 15 -10 0 6 -7 19 -15 30
-8 10 -14 15 -14 9z"/>
<path d="M5686 3894 c-5 -14 -4 -15 9 -4 17 14 19 20 6 20 -5 0 -12 -7 -15
-16z"/>
<path d="M3741 3866 c-9 -11 -9 -16 1 -22 7 -4 10 -4 6 1 -4 4 -3 14 3 22 6 7
9 13 6 13 -2 0 -10 -6 -16 -14z"/>
<path d="M2956 3815 c-9 -26 -7 -32 5 -12 6 10 9 21 6 23 -2 3 -7 -2 -11 -11z"/>
<path d="M5304 3743 c3 -6 2 -14 -4 -18 -14 -9 -12 -22 3 -22 15 0 16 32 2 44
-4 5 -5 3 -1 -4z"/>
<path d="M2966 3545 c4 -8 11 -15 16 -15 6 0 5 6 -2 15 -7 8 -14 15 -16 15 -2
0 -1 -7 2 -15z"/>
<path d="M3156 3522 c-3 -5 1 -9 9 -9 8 0 12 4 9 9 -3 4 -7 8 -9 8 -2 0 -6 -4
-9 -8z"/>
<path d="M4460 3496 c0 -2 8 -10 18 -17 15 -13 16 -12 3 4 -13 16 -21 21 -21
13z"/>
<path d="M4480 3426 c0 -2 7 -9 15 -16 13 -11 14 -10 9 4 -5 14 -24 23 -24 12z"/>
<path d="M3910 3341 c0 -6 4 -13 10 -16 6 -3 7 1 4 9 -7 18 -14 21 -14 7z"/>
<path d="M2473 3325 c0 -8 4 -12 9 -9 5 3 6 10 3 15 -9 13 -12 11 -12 -6z"/>
<path d="M5391 3076 c-9 -11 -9 -16 1 -22 7 -4 10 -4 6 1 -4 4 -3 14 3 22 6 7
9 13 6 13 -2 0 -10 -6 -16 -14z"/>
<path d="M3155 2801 c-3 -5 -2 -12 3 -15 5 -3 9 1 9 9 0 17 -3 19 -12 6z"/>
<path d="M2700 2679 c0 -5 5 -7 10 -4 6 3 10 8 10 11 0 2 -4 4 -10 4 -5 0 -10
-5 -10 -11z"/>
<path d="M4776 2647 c3 -10 9 -15 12 -12 3 3 0 11 -7 18 -10 9 -11 8 -5 -6z"/>
<path d="M4785 2610 c-3 -6 1 -7 9 -4 18 7 21 14 7 14 -6 0 -13 -4 -16 -10z"/>
<path d="M4303 2505 c0 -8 4 -12 9 -9 5 3 6 10 3 15 -9 13 -12 11 -12 -6z"/>
<path d="M4960 2405 c-7 -9 -8 -15 -2 -15 5 0 12 7 16 15 3 8 4 15 2 15 -2 0
-9 -7 -16 -15z"/>
<path d="M2790 2400 c0 -5 5 -10 11 -10 5 0 7 5 4 10 -3 6 -8 10 -11 10 -2 0
-4 -4 -4 -10z"/>
<path d="M3300 2359 c0 -5 5 -7 10 -4 6 3 10 8 10 11 0 2 -4 4 -10 4 -5 0 -10
-5 -10 -11z"/>
<path d="M5100 2279 c0 -5 5 -7 10 -4 6 3 10 8 10 11 0 2 -4 4 -10 4 -5 0 -10
-5 -10 -11z"/>
<path d="M3347 2239 c7 -7 15 -10 18 -7 3 3 -2 9 -12 12 -14 6 -15 5 -6 -5z"/>
<path d="M4435 2142 c2 -20 33 -82 41 -82 3 0 -3 15 -14 34 -12 21 -16 36 -10
38 6 2 4 9 -4 16 -12 9 -14 8 -13 -6z"/>
<path d="M3455 2061 c-3 -5 -2 -12 3 -15 5 -3 9 1 9 9 0 17 -3 19 -12 6z"/>
<path d="M2925 2040 c3 -5 8 -10 11 -10 2 0 4 5 4 10 0 6 -5 10 -11 10 -5 0
-7 -4 -4 -10z"/>
<path d="M4486 2002 c-3 -5 1 -9 9 -9 8 0 12 4 9 9 -3 4 -7 8 -9 8 -2 0 -6 -4
-9 -8z"/>
<path d="M3325 1701 c-3 -5 0 -13 6 -17 7 -4 9 -3 5 4 -3 5 0 13 6 15 9 4 10
6 1 6 -6 1 -14 -3 -18 -8z"/>
<path d="M4670 1480 c0 -5 7 -7 15 -4 8 4 15 8 15 10 0 2 -7 4 -15 4 -8 0 -15
-4 -15 -10z"/>
</g>
</svg>
